<?xml version="1.0" encoding="UTF-8"?>
<svg version="1.1" xmlns="http://www.w3.org/2000/svg" width="1080" height="438">
<path d="M0 0 C1.50298346 0.00138269 1.50298346 0.00138269 3.03633022 0.00279331 C4.18202984 0.00141865 5.32772945 0.00004398 6.50814724 -0.00137234 C8.41030499 0.00402058 8.41030499 0.00402058 10.35089016 0.00952244 C11.69092208 0.00980431 13.03095415 0.00964657 14.37098598 0.00907993 C18.01958415 0.00879196 21.66814971 0.01468863 25.31674027 0.02165389 C29.12576493 0.02788749 32.93479026 0.02849123 36.74381924 0.0296793 C43.96156731 0.0327926 51.17930031 0.04100597 58.39704174 0.05102879 C68.1469795 0.06427523 77.89692136 0.06968984 87.64686584 0.07553101 C103.01558512 0.08494586 118.38427258 0.10486478 133.75298977 0.12304783 C133.75298977 25.86304783 133.75298977 51.60304783 133.75298977 78.12304783 C110.65298977 78.12304783 87.55298977 78.12304783 63.75298977 78.12304783 C63.75298977 60.30304783 63.75298977 42.48304783 63.75298977 24.12304783 C49.89298977 24.12304783 36.03298977 24.12304783 21.75298977 24.12304783 C21.85611477 28.35117283 21.95923977 32.57929783 22.06548977 36.93554783 C22.09038479 38.26561863 22.11527981 39.59568943 22.14092922 40.96606541 C22.17404202 42.01431492 22.20715481 43.06256443 22.24127102 44.14257908 C22.2674551 45.21612644 22.29363918 46.28967381 22.32061672 47.39575291 C22.56661844 50.08967691 22.56661844 50.08967691 23.89971828 51.96704197 C26.58730781 53.64346621 28.76561798 53.54329384 31.91705227 53.59961033 C33.12103664 53.63054783 34.32502102 53.66148533 35.56548977 53.69336033 C36.82361477 53.7114072 38.08173977 53.72945408 39.37798977 53.74804783 C41.87026038 53.7988069 44.36245903 53.85328409 46.85455227 53.91211033 C48.5147842 53.93845554 48.5147842 53.93845554 50.20855618 53.96533298 C52.75298977 54.12304783 52.75298977 54.12304783 53.75298977 55.12304783 C53.85215547 56.74562327 53.88378754 58.37244614 53.88580227 59.99804783 C53.88773586 61.47531345 53.88773586 61.47531345 53.88970852 62.98242283 C53.88584133 64.01882908 53.88197414 65.05523533 53.87798977 66.12304783 C53.88379055 67.6776572 53.88379055 67.6776572 53.88970852 69.26367283 C53.88841946 70.24851658 53.88713039 71.23336033 53.88580227 72.24804783 C53.88467434 73.15812595 53.88354641 74.06820408 53.8823843 75.00586033 C53.75298977 77.12304783 53.75298977 77.12304783 52.75298977 78.12304783 C50.40976019 78.23650987 48.09719658 78.2872273 45.75298977 78.29101658 C45.0432803 78.29434498 44.33357082 78.29767338 43.602355 78.30110264 C42.0925146 78.30617914 40.58266292 78.30851074 39.07281399 78.30835056 C36.79022797 78.31051256 34.50814481 78.32859098 32.22564602 78.3476572 C11.50489452 78.43032962 11.50489452 78.43032962 3.75298977 71.12304783 C-3.64798625 63.07424102 -3.5421216 53.76902017 -3.47747898 43.34570408 C-3.47702076 42.13861286 -3.47656254 40.93152164 -3.47609043 39.68785191 C-3.47308134 37.15053409 -3.46523555 34.61321791 -3.45282078 32.07592869 C-3.43445706 28.17425162 -3.43231201 24.27281066 -3.43255711 20.3710947 C-3.42764554 17.90429576 -3.4218188 15.43749843 -3.41497898 12.97070408 C-3.41330975 11.21150387 -3.41330975 11.21150387 -3.41160679 9.41676426 C-3.40522694 8.34151997 -3.39884708 7.26627567 -3.3922739 6.15844822 C-3.3884621 5.20772938 -3.38465031 4.25701054 -3.380723 3.27748203 C-3.19630849 0.30612093 -2.97614524 0.16297576 0 0 Z " fill="#A4131B" transform="translate(110.24701023101807,250.87695217132568)"/>
<path d="M0 0 C1.22355698 0.0199855 2.44711395 0.03997101 3.70774841 0.06056213 C4.71746201 0.07497345 4.71746201 0.07497345 5.74757385 0.0896759 C7.98236706 0.12277348 10.21697126 0.16306434 12.4516449 0.2033844 C13.99720586 0.22767503 15.5427739 0.25151911 17.08834839 0.27493286 C21.1638747 0.33787909 25.23927631 0.40691563 29.31468201 0.47718811 C34.20044921 0.56017909 39.08633736 0.63566348 43.97220612 0.71239471 C51.40165936 0.82991863 58.83089374 0.95702284 66.26023865 1.08229065 C66.26023865 18.90229065 66.26023865 36.72229065 66.26023865 55.08229065 C80.12023865 55.08229065 93.98023865 55.08229065 108.26023865 55.08229065 C108.15711365 51.03979065 108.05398865 46.99729065 107.94773865 42.83229065 C107.92284363 41.56353088 107.89794861 40.29477112 107.87229919 38.98756409 C107.8391864 37.9824176 107.80607361 36.97727112 107.7719574 35.94166565 C107.74577332 34.91524963 107.71958923 33.88883362 107.69261169 32.83131409 C107.18990955 29.63513898 106.667929 28.25146393 104.26023865 26.08229065 C101.3820212 25.45443705 101.3820212 25.45443705 98.09617615 25.5080719 C96.89219177 25.48035706 95.6882074 25.45264221 94.44773865 25.42408752 C92.56055115 25.40958557 92.56055115 25.40958557 90.63523865 25.39479065 C88.14298629 25.35291472 85.65078938 25.30753981 83.15867615 25.2580719 C81.49844421 25.2412738 81.49844421 25.2412738 79.80467224 25.22413635 C77.26023865 25.08229065 77.26023865 25.08229065 76.26023865 24.08229065 C76.17310033 22.37456707 76.15323857 20.66330416 76.1625824 18.9533844 C76.16741638 17.40167542 76.16741638 17.40167542 76.17234802 15.81861877 C76.18491638 14.18569885 76.18491638 14.18569885 76.19773865 12.51979065 C76.20225037 11.42731018 76.20676208 10.33482971 76.21141052 9.20924377 C76.22324038 6.5002057 76.23972321 3.79127466 76.26023865 1.08229065 C81.5254831 0.98285983 86.79017208 0.91055866 92.05613708 0.86256409 C93.84464549 0.84254106 95.63308919 0.81531411 97.42137146 0.78053284 C100.00324027 0.7316011 102.58423814 0.709229 105.16648865 0.69166565 C106.35135864 0.66069794 106.35135864 0.66069794 107.56016541 0.62910461 C114.72261788 0.626258 120.81774842 3.11938551 126.01023865 8.14479065 C133.15890741 16.0484858 133.84546155 25.72270877 133.6860199 35.93385315 C133.68108772 37.70482864 133.68108772 37.70482864 133.67605591 39.51158142 C133.66570296 41.98393852 133.64587025 44.45627269 133.6169281 46.92848206 C133.57245919 50.73118806 133.5554253 54.53326182 133.54344177 58.3361969 C133.53003277 60.74375821 133.51511399 63.15131169 133.4985199 65.55885315 C133.49113297 66.70036835 133.48374603 67.84188354 133.47613525 69.01799011 C133.46330002 70.06353058 133.45046478 71.10907104 133.4372406 72.18629456 C133.42247429 73.57215256 133.42247429 73.57215256 133.40740967 74.98600769 C133.26023865 77.08229065 133.26023865 77.08229065 132.26023865 78.08229065 C130.50130435 78.1786111 128.73846706 78.20416574 126.97689819 78.20254517 C125.83119858 78.20391983 124.68549896 78.20529449 123.50508118 78.20671082 C121.60292343 78.2013179 121.60292343 78.2013179 119.66233826 78.19581604 C118.32230634 78.19553417 116.98227426 78.1956919 115.64224243 78.19625854 C111.99364427 78.19654652 108.3450787 78.19064985 104.69648814 78.18368459 C100.88746348 78.17745099 97.07843815 78.17684725 93.26940918 78.17565918 C86.05166111 78.17254588 78.8339281 78.16433251 71.61618668 78.15430969 C63.40108608 78.14314851 55.18598477 78.13763809 46.97087848 78.13261425 C30.06732314 78.1221499 13.16378248 78.10455048 -3.73976135 78.08229065 C-3.76288545 68.06001302 -3.78067678 58.03774168 -3.79157352 48.01544285 C-3.79680221 43.36217879 -3.80389958 38.70893291 -3.81520081 34.05567932 C-3.82603022 29.56884519 -3.8320383 25.08202861 -3.8346386 20.59518242 C-3.83649275 18.87948772 -3.84011317 17.16379403 -3.84549141 15.44810677 C-3.85270256 13.05344152 -3.85375226 10.65884969 -3.85328674 8.26417542 C-3.85688202 7.54776382 -3.86047729 6.83135223 -3.86418152 6.0932312 C-3.85152547 0.11568326 -3.85152547 0.11568326 0 0 Z " fill="#A3141A" transform="translate(177.73976135253906,162.91770935058594)"/>
<path d="M0 0 C0.96515533 -0.01253311 1.93031067 -0.02506622 2.92471313 -0.03797913 C4.47477554 -0.01809181 4.47477554 -0.01809181 6.05615234 0.00219727 C7.13279144 -0.00021469 8.20943054 -0.00262665 9.31869507 -0.00511169 C11.5966154 -0.00413307 13.87455947 0.00926391 16.15234375 0.03417969 C19.60940168 0.06828107 23.06387211 0.05488896 26.52099609 0.03540039 C28.74105892 0.04230533 30.96111519 0.05198354 33.18115234 0.06469727 C34.71299667 0.05725746 34.71299667 0.05725746 36.27578735 0.04966736 C46.80586036 0.21912486 56.29029614 3.26964285 64.01708984 10.63110352 C71.15384839 19.83376585 70.99960665 29.43644268 70.01708984 40.63110352 C67.82758944 50.58218618 60.02489147 57.08208924 52.01708984 62.63110352 C52.42024414 63.17001221 52.82339844 63.7089209 53.23876953 64.26416016 C55.08559554 66.73764468 56.92637051 69.21557163 58.76708984 71.69360352 C59.40130859 72.54116211 60.03552734 73.3887207 60.68896484 74.26196289 C69.58102716 86.25698445 69.58102716 86.25698445 70.57958984 91.69360352 C69.82287508 95.64533615 68.21852244 98.26081208 65.01708984 100.63110352 C61.27382561 101.98954618 58.21245913 102.03927839 54.45458984 100.75610352 C50.69301883 97.47678519 47.94245924 93.66115786 45.01708984 89.63110352 C44.50984375 88.93307617 44.00259766 88.23504883 43.47998047 87.51586914 C40.11871458 82.88590911 36.77273234 78.24522275 33.43994141 73.59472656 C32.43586605 72.20904055 31.39773143 70.84772848 30.33642578 69.50537109 C29.01708984 67.63110352 29.01708984 67.63110352 29.01708984 65.63110352 C23.07708984 65.96110352 17.13708984 66.29110352 11.01708984 66.63110352 C11.04029297 68.28239258 11.06349609 69.93368164 11.08740234 71.63500977 C11.10616795 73.82120314 11.1243673 76.00740143 11.14208984 78.19360352 C11.16722656 79.82265625 11.16722656 79.82265625 11.19287109 81.48461914 C11.27576982 95.1214591 11.27576982 95.1214591 7.32958984 99.50610352 C3.2982746 101.46728391 -0.35459585 102.00117495 -4.73291016 101.00610352 C-7.68323002 99.20313027 -8.5091637 97.77425636 -9.98291016 94.63110352 C-10.2784417 91.67405021 -10.41357318 88.92843195 -10.40283203 85.97290039 C-10.41130157 85.11213394 -10.41977112 84.25136749 -10.42849731 83.36451721 C-10.45185008 80.52614471 -10.45289001 77.68831471 -10.45166016 74.84985352 C-10.45876189 72.87357364 -10.46646091 70.89729583 -10.47473145 68.92102051 C-10.48817165 64.7818427 -10.48974667 60.64285562 -10.48388672 56.50366211 C-10.4779858 51.20047003 -10.50860067 45.89819191 -10.5490036 40.5951767 C-10.57485445 36.51506625 -10.57776049 32.43517678 -10.57411194 28.35499573 C-10.5758051 26.39976196 -10.58546642 24.44451819 -10.60325623 22.48936462 C-10.62539848 19.75538917 -10.61576932 17.02327586 -10.59814453 14.28930664 C-10.61140778 13.48292252 -10.62467102 12.67653839 -10.63833618 11.84571838 C-10.57876553 7.86767818 -10.15030132 5.85672203 -7.75588989 2.62940979 C-4.80483122 0.5027736 -3.57171587 0.00407025 0 0 Z M10.01708984 17.63110352 C9.98791751 21.50608756 9.97023311 25.3810431 9.95458984 29.25610352 C9.94621094 30.35051758 9.93783203 31.44493164 9.92919922 32.57250977 C9.92597656 33.63598633 9.92275391 34.69946289 9.91943359 35.79516602 C9.91419678 36.76921387 9.90895996 37.74326172 9.90356445 38.74682617 C10.02294478 41.77985673 10.45842261 44.65025619 11.01708984 47.63110352 C14.68368799 47.68974743 18.35016349 47.72491459 22.01708984 47.75610352 C23.04705078 47.77286133 24.07701172 47.78961914 25.13818359 47.80688477 C34.36941344 47.86568241 41.21533065 47.26696614 48.01708984 40.63110352 C50.14041993 36.38444334 49.61642325 31.2318688 49.01708984 26.63110352 C47.34616962 22.91298715 44.99762586 20.38515134 41.14208984 18.91723633 C34.55829012 17.45520883 28.1777474 17.40073757 21.45458984 17.50610352 C19.7984668 17.51963867 19.7984668 17.51963867 18.10888672 17.53344727 C15.41138814 17.55680223 12.71435907 17.58955298 10.01708984 17.63110352 Z " fill="#F2F2F2" transform="translate(371.98291015625,184.368896484375)"/>
<path d="M0 0 C3.56196344 0.06167902 4.74950281 0.10024596 7.6875 2.25 C10.55636636 6.49093289 10.27968384 10.16759768 10.28613281 15.15161133 C10.29358017 16.51525566 10.29358017 16.51525566 10.30117798 17.90644836 C10.3158202 20.92331694 10.32260529 23.94013293 10.328125 26.95703125 C10.33387509 29.0496979 10.33963284 31.14236452 10.34539795 33.23503113 C10.35591403 37.62747443 10.36175261 42.01989939 10.36523438 46.41235352 C10.37071809 52.04158603 10.39474103 57.67057654 10.42320633 63.29973316 C10.44182826 67.62429004 10.44703809 71.9487886 10.44857025 76.27338219 C10.45159869 78.34862274 10.45963362 80.42386222 10.47275543 82.49906349 C10.48980525 85.4029646 10.48793812 88.30627425 10.48144531 91.21020508 C10.4906601 92.06805603 10.49987488 92.92590698 10.5093689 93.80975342 C10.47660574 98.48620536 10.17335468 101.58300888 7.125 105.375 C3.00373311 107.89355199 -0.26993538 107.46346982 -4.875 106.375 C-8.53025211 104.39918805 -9.60961332 102.27660892 -10.875 98.375 C-11.535 98.375 -12.195 98.375 -12.875 98.375 C-13.37 99.86 -13.37 99.86 -13.875 101.375 C-15.8359375 102.7265625 -15.8359375 102.7265625 -18.25 104 C-19.04148437 104.42539062 -19.83296875 104.85078125 -20.6484375 105.2890625 C-28.36005239 109.0501659 -38.78598973 108.44672637 -46.8125 105.8125 C-55.94615039 101.92324531 -61.76780347 95.31870834 -65.875 86.375 C-70.47997754 73.53319471 -70.09467701 60.49263464 -64.84375 47.90234375 C-60.55606558 39.45734369 -53.90188815 32.55020375 -44.875 29.375 C-36.73616495 26.88851116 -28.11172617 26.52232471 -20.0625 29.625 C-16.5402913 31.55876164 -13.9248527 33.77177845 -10.875 36.375 C-10.86041748 35.52268799 -10.84583496 34.67037598 -10.83081055 33.79223633 C-10.76956715 30.61428825 -10.69537971 27.43697454 -10.61254883 24.25952148 C-10.57940194 22.88724042 -10.55133829 21.51482638 -10.52856445 20.14233398 C-10.49483234 18.16362234 -10.4409851 16.18528624 -10.38671875 14.20703125 C-10.36053467 13.01827393 -10.33435059 11.8295166 -10.30737305 10.60473633 C-9.4485207 4.18928873 -6.57649777 0.09757415 0 0 Z M-43.0625 50.625 C-48.2148161 58.44230719 -48.80621372 65.04169888 -47.875 74.375 C-46.46815181 80.1531265 -43.649435 84.63027613 -38.93359375 88.28125 C-34.06312246 90.86897668 -28.90869074 90.80520381 -23.625 89.6875 C-17.20094283 86.62147272 -13.76854431 83.79406759 -10.7890625 77.296875 C-8.79974354 70.93785543 -8.66749073 63.64164863 -11.125 57.375 C-14.6886204 51.26593646 -18.05441998 47.54730802 -24.875 45.375 C-32.10936753 44.37022673 -37.80456168 45.21683487 -43.0625 50.625 Z " fill="#F2F2F1" transform="translate(600.875,178.625)"/>
<path d="M0 0 C3.36126111 2.80105093 4.32791057 4.22710987 4.890625 8.6484375 C4.38547665 12.76178837 3.34850984 14.31555266 0.453125 17.2109375 C-3.07906829 18.97703414 -6.79786824 18.08511905 -10.546875 17.2109375 C-12.88350958 16.06867188 -15.06355078 14.76343203 -17.29296875 13.42578125 C-23.55359738 10.05133497 -29.70745992 9.75335724 -36.546875 11.2109375 C-40.53514073 12.8357865 -42.14182002 13.60335504 -44.546875 17.2109375 C-45.06073591 20.47762469 -44.76649989 23.13465151 -43.546875 26.2109375 C-37.79808753 31.68665757 -27.70356621 32.93347408 -20.24707031 34.97900391 C-8.51872953 38.23920589 0.19934121 42.21290394 6.453125 53.2109375 C9.59234453 61.90143225 8.72138241 69.69366062 5.453125 78.2109375 C1.96009553 84.80888206 -3.71684068 90.36647713 -10.734375 93.0859375 C-28.0620729 98.19902868 -44.47932195 95.00158626 -60.41796875 87.22265625 C-64.10090874 84.85472355 -66.01364879 82.76675043 -68.546875 79.2109375 C-69.16094781 75.77212975 -69.23754737 73.59532484 -67.66015625 70.43359375 C-66.484375 68.7734375 -66.484375 68.7734375 -63.546875 66.2109375 C-57.80377593 65.49823966 -54.2111913 67.0603563 -49.484375 70.0859375 C-42.49267467 74.43940547 -36.8495682 76.57033093 -28.546875 76.5859375 C-27.51820313 76.62267578 -27.51820313 76.62267578 -26.46875 76.66015625 C-21.35013423 76.6894613 -18.47377735 75.43147632 -14.546875 72.2109375 C-12.94231337 69.00181424 -13.07525837 65.69257789 -13.546875 62.2109375 C-17.76858152 55.60304904 -27.11352487 54.01685108 -34.234375 52.3984375 C-44.95955487 49.88971205 -55.20269554 46.03540786 -62.3125 37.203125 C-66.78473928 29.98527047 -66.39196005 21.44070218 -65.546875 13.2109375 C-63.4813752 5.45135716 -57.52551711 0.29849242 -50.8203125 -3.65234375 C-35.86131597 -11.13184201 -13.72559459 -9.84662221 0 0 Z " fill="#F2F2F1" transform="translate(690.546875,190.7890625)"/>
<path d="M0 0 C1.09783813 -0.00315216 2.19567627 -0.00630432 3.32678223 -0.009552 C5.11892151 -0.00651566 5.11892151 -0.00651566 6.94726562 -0.00341797 C8.16426147 -0.00437469 9.38125732 -0.00533142 10.63513184 -0.00631714 C13.21427461 -0.00699919 15.79341909 -0.00514319 18.37255859 -0.00097656 C22.33630198 0.00437131 26.29993204 -0.00092076 30.26367188 -0.00732422 C32.76237004 -0.00666344 35.26106814 -0.00538229 37.75976562 -0.00341797 C38.95452515 -0.0054422 40.14928467 -0.00746643 41.38024902 -0.009552 C42.47808716 -0.00639984 43.57592529 -0.00324768 44.70703125 0 C46.16477966 0.00119339 46.16477966 0.00119339 47.65197754 0.00241089 C49.85351562 0.12939453 49.85351562 0.12939453 50.85351562 1.12939453 C50.96804387 2.82504195 51.01313544 4.52543163 51.03051758 6.22485352 C51.04977043 7.85806801 51.04977043 7.85806801 51.06941223 9.52427673 C51.07679916 10.71267654 51.0841861 11.90107635 51.09179688 13.12548828 C51.09986862 14.34333511 51.10794037 15.56118195 51.11625671 16.81593323 C51.1301243 19.40437385 51.14083441 21.99283296 51.14868164 24.58129883 C51.16580696 28.51891584 51.20966034 32.45567435 51.25390625 36.39306641 C51.26404042 38.90803419 51.27255425 41.42300912 51.27929688 43.93798828 C51.29680496 45.10817001 51.31431305 46.27835175 51.33235168 47.48399353 C51.3084151 56.62459714 49.83424031 64.2114849 43.47851562 71.06689453 C36.64335112 77.27404178 29.90961412 78.28754436 20.96289062 78.26220703 C20.21767151 78.26316376 19.47245239 78.26412048 18.70465088 78.2651062 C17.13806066 78.26578399 15.57146757 78.2639578 14.00488281 78.25976562 C11.59759307 78.25438128 9.19048734 78.25973962 6.78320312 78.26611328 C5.25976521 78.26545302 3.73632741 78.26417294 2.21289062 78.26220703 C1.49002869 78.26423126 0.76716675 78.26625549 0.0223999 78.26834106 C-5.03151218 78.24436673 -5.03151218 78.24436673 -6.14648438 77.12939453 C-6.24674133 74.76177878 -6.28267373 72.4233238 -6.27587891 70.05517578 C-6.27763123 69.31536469 -6.27938354 68.57555359 -6.28118896 67.81332397 C-6.28560747 65.3561573 -6.28266951 62.899062 -6.27929688 60.44189453 C-6.27996991 58.74178046 -6.28093994 57.04166648 -6.28219604 55.34155273 C-6.28367302 51.77375373 -6.28151849 48.20597971 -6.27685547 44.63818359 C-6.27115818 40.05450959 -6.27443719 35.47089414 -6.28042793 30.88722229 C-6.28403357 27.37519893 -6.28289495 23.86318955 -6.28030014 20.35116577 C-6.27963088 18.6605936 -6.28045927 16.97002018 -6.28277969 15.27944946 C-6.28530626 12.92080296 -6.28146559 10.56225258 -6.27587891 8.20361328 C-6.27790314 7.49812347 -6.27992737 6.79263367 -6.28201294 6.06576538 C-6.25599694 0.16654545 -5.78386478 0.00473498 0 0 Z " fill="#A4131B" transform="translate(260.146484375,250.87060546875)"/>
<path d="M0 0 C3.37810793 0.05985922 6.75631443 0.11330471 10.13452148 0.16723633 C11.8128221 0.19483002 13.49112118 0.22251702 15.16941833 0.25032043 C16.41288528 0.27083969 17.65635223 0.29135895 18.9375 0.3125 C18.96062428 10.20439376 18.97841552 20.09628114 18.98931217 29.98819637 C18.99454082 34.5809264 19.00163812 39.173638 19.01293945 43.76635742 C19.023769 48.19483688 19.02977698 52.62329856 19.03237724 57.05179024 C19.03423137 58.74515628 19.03785175 60.43852129 19.04323006 62.13187981 C19.0504414 64.49541232 19.0514909 66.85887045 19.05102539 69.22241211 C19.05462067 69.92947296 19.05821594 70.63653381 19.06192017 71.36502075 C19.05155216 76.19844784 19.05155216 76.19844784 17.9375 77.3125 C16.22431054 77.41131593 14.50705197 77.44048969 12.79101562 77.44189453 C11.69317749 77.44504669 10.59533936 77.44819885 9.4642334 77.45144653 C8.26947388 77.4494223 7.07471436 77.44739807 5.84375 77.4453125 C4.62675415 77.44626923 3.4097583 77.44722595 2.15588379 77.44821167 C-0.42325899 77.44889372 -3.00240347 77.44703772 -5.58154297 77.44287109 C-9.54528636 77.43752322 -13.50891642 77.44281529 -17.47265625 77.44921875 C-19.97135442 77.44855797 -22.47005252 77.44727682 -24.96875 77.4453125 C-26.76088928 77.44834885 -26.76088928 77.44834885 -28.5892334 77.45144653 C-29.68707153 77.44829437 -30.78490967 77.44514221 -31.91601562 77.44189453 C-33.37376404 77.44070114 -33.37376404 77.44070114 -34.86096191 77.43948364 C-37.0625 77.3125 -37.0625 77.3125 -38.0625 76.3125 C-38.17166049 74.67267326 -38.21156618 73.02817737 -38.22363281 71.38476562 C-38.23324036 70.33276978 -38.2428479 69.28077393 -38.25274658 68.19689941 C-38.25699646 67.04911011 -38.26124634 65.9013208 -38.265625 64.71875 C-38.27417511 62.95501038 -38.27417511 62.95501038 -38.28289795 61.15563965 C-38.29236974 58.65715439 -38.29889053 56.15865651 -38.30273438 53.66015625 C-38.31238821 49.85654407 -38.3433702 46.053484 -38.375 42.25 C-38.38153497 39.82291988 -38.3867835 37.39583588 -38.390625 34.96875 C-38.4029718 33.83715454 -38.4153186 32.70555908 -38.42803955 31.53967285 C-38.39899361 21.11393598 -36.30285567 12.99961135 -29.0625 5.3125 C-21.07219256 -1.95531221 -10.02053542 -0.23408784 0 0 Z " fill="#A2141B" transform="translate(145.0625,163.6875)"/>
<path d="M0 0 C10.48671867 0.28746488 19.08353578 3.20316336 26.8125 10.47265625 C33.63837554 18.09377943 36.68998107 27.27644944 37.25 37.47265625 C36.74218632 41.60771047 35.86520315 43.23684503 32.8125 46.03515625 C29.86118383 47.03112403 27.14359488 47.15701403 24.04394531 47.14868164 C23.10327209 47.14860611 22.16259888 47.14853058 21.19342041 47.14845276 C20.18599792 47.14329147 19.17857544 47.13813019 18.140625 47.1328125 C17.10307068 47.13139755 16.06551636 47.1299826 14.996521 47.12852478 C11.68515124 47.12293072 8.37384929 47.11037928 5.0625 47.09765625 C2.81640723 47.09264048 0.57031339 47.08807771 -1.67578125 47.08398438 C-7.1797106 47.07296324 -12.68360046 47.05623099 -18.1875 47.03515625 C-17.41564065 48.65169542 -16.63537091 50.26422066 -15.8515625 51.875 C-15.4179541 52.773396 -14.9843457 53.67179199 -14.53759766 54.59741211 C-12.25435901 58.72004102 -9.57725493 60.57190461 -5.1875 62.03515625 C-2.91986426 62.18163707 -0.64717634 62.25611885 1.625 62.28515625 C3.42904297 62.32382812 3.42904297 62.32382812 5.26953125 62.36328125 C9.90935207 61.93357348 12.95957937 60.13305502 16.90234375 57.796875 C20.65672459 55.61409544 22.23563645 54.95141799 26.6875 55.59765625 C29.8125 57.03515625 29.8125 57.03515625 31.8125 60.03515625 C32.3532355 63.27956923 32.63238867 64.95916015 31.8125 68.03515625 C26.79589988 74.63524553 18.74983607 78.28451541 10.8125 80.03515625 C-4.84948838 80.83517923 -15.92166709 79.7363711 -28.1875 69.03515625 C-35.89985277 61.21103025 -38.56306634 51.78644639 -38.6875 41.03515625 C-38.5497572 29.12409366 -34.77036961 19.13559792 -26.59765625 10.3203125 C-18.88821067 3.19134282 -10.34930297 0.11414672 0 0 Z M-12.1875 21.03515625 C-15.11958592 24.93395169 -16.99760473 28.27557519 -18.1875 33.03515625 C-6.6375 33.03515625 4.9125 33.03515625 16.8125 33.03515625 C15.45289085 26.23711048 12.94763478 22.65677755 7.8125 18.03515625 C0.79837388 15.69711421 -6.67106563 15.78140923 -12.1875 21.03515625 Z " fill="#F2F2F1" transform="translate(488.1875,205.96484375)"/>
<path d="M0 0 C9.41755741 5.70964607 14.69861655 13.8425147 18.4375 23.9375 C19.60184935 29.56518852 20.73457921 35.12257564 17.53808594 40.16381836 C14.59483103 43.16729566 13.26524424 43.23990428 9.1171875 43.37109375 C7.87420898 43.41733887 6.63123047 43.46358398 5.35058594 43.51123047 C3.96294083 43.53200061 2.57523419 43.5489291 1.1875 43.5625 C0.45422485 43.57323547 -0.27905029 43.58397095 -1.0345459 43.59503174 C-6.58608331 43.66878226 -12.13570688 43.65446576 -17.6875 43.625 C-19.35807156 43.61996914 -21.0286446 43.61540907 -22.69921875 43.61132812 C-26.73701682 43.60046159 -30.77474132 43.58328681 -34.8125 43.5625 C-34.50054688 44.49578125 -34.18859375 45.4290625 -33.8671875 46.390625 C-33.21211805 48.36068573 -32.56698579 50.33411609 -31.9375 52.3125 C-30.57106864 55.04536272 -29.61890475 55.48946289 -26.8125 56.5625 C-26.255625 56.89894531 -25.69875 57.23539062 -25.125 57.58203125 C-19.77965614 59.84838481 -13.47411545 59.24718723 -7.8125 58.5625 C-4.87367171 57.2938048 -2.52485404 55.87535221 0.0390625 53.97265625 C2.48900033 52.36460615 4.28052062 51.84336757 7.1875 51.5625 C10.35928202 52.74414428 12.50565198 53.70277858 14.625 56.375 C15.47567435 59.68317803 15.34079312 61.29483616 14.1875 64.5625 C8.69078965 70.99393013 1.36677617 74.74813294 -6.8125 76.5625 C-21.2008724 77.43236196 -33.37180159 76.25140905 -44.8125 66.5625 C-53.02953187 58.23156868 -56.17100141 49.0821502 -56.3125 37.5625 C-56.14640898 25.06833507 -52.06578789 16.00558669 -43.8125 6.5625 C-32.67228429 -4.03797658 -13.96577599 -6.42104643 0 0 Z M-32.19140625 20.3125 C-34.24570033 23.63372807 -34.8125 25.61505213 -34.8125 29.5625 C-23.5925 29.5625 -12.3725 29.5625 -0.8125 29.5625 C-1.93401719 22.83339687 -3.43568796 19.76539896 -8.375 15.1875 C-16.93140553 11.14265375 -26.24476019 12.76548177 -32.19140625 20.3125 Z " fill="#F2F2F2" transform="translate(953.8125,209.4375)"/>
<path d="M0 0 C0.92578857 0.00757324 1.85157715 0.01514648 2.80541992 0.02294922 C9.39267305 0.18232294 14.89172227 0.8530358 20.5625 4.4375 C21.27277344 4.88480469 21.98304688 5.33210937 22.71484375 5.79296875 C32.34251206 12.48034357 37.78094188 21.13372125 40.5625 32.4375 C41.85041534 45.49289448 39.72462818 55.25785986 31.6875 65.875 C26.18514917 72.30471333 20.63970502 75.97270342 12.5625 78.4375 C11.70591797 78.7159375 11.70591797 78.7159375 10.83203125 79 C-1.97272797 81.46838732 -14.47890531 79.34617926 -25.4375 72.4375 C-25.4375 71.7775 -25.4375 71.1175 -25.4375 70.4375 C-26.33662109 70.03144531 -26.33662109 70.03144531 -27.25390625 69.6171875 C-33.55838273 66.21119126 -37.01891523 59.47656054 -39.515625 53.0078125 C-42.51523519 41.39067811 -41.4929104 28.89045902 -35.4375 18.4375 C-26.11588428 5.75313318 -15.7479909 -0.18033689 0 0 Z M-15.23046875 23.56640625 C-20.2509654 30.80498456 -21.10392434 36.68916595 -20.4375 45.4375 C-18.9940316 52.1888404 -15.57960777 55.77146916 -10.375 60.1875 C-5.60031935 63.26793913 0.16622699 63.08440914 5.61328125 62.046875 C11.58662787 60.23747292 15.06063146 56.48174277 18.5625 51.4375 C21.55236297 45.5877681 21.60323559 38.22199306 19.875 31.9375 C17.36115202 25.73667498 13.84898755 21.08074378 7.8125 18.0625 C-0.83896325 16.39875707 -9.17828013 16.38025636 -15.23046875 23.56640625 Z " fill="#F3F3F2" transform="translate(798.4375,206.5625)"/>
<path d="M0 0 C3.29769631 0.64520145 4.97782423 1.90307021 7.15625 4.421875 C8.14619853 8.05791238 8.26398499 11.47987088 8.21875 15.234375 C8.20972656 16.21019531 8.20070313 17.18601563 8.19140625 18.19140625 C8.17980469 18.92746094 8.16820312 19.66351563 8.15625 20.421875 C9.19265625 20.44765625 10.2290625 20.4734375 11.296875 20.5 C12.66670801 20.55629451 14.03649805 20.61364155 15.40625 20.671875 C16.42912109 20.69314453 16.42912109 20.69314453 17.47265625 20.71484375 C20.82284768 20.8774744 22.86070372 21.20881771 25.60546875 23.1875 C27.32850798 25.67006533 27.7238782 26.92700581 27.71875 29.921875 C27.74066406 30.6746875 27.76257813 31.4275 27.78515625 32.203125 C26.83337567 35.5609596 25.04184026 36.53468786 22.15625 38.421875 C18.60546875 39.03125 18.60546875 39.03125 14.84375 39.171875 C13.58949219 39.22859375 12.33523438 39.2853125 11.04296875 39.34375 C10.09035156 39.36953125 9.13773438 39.3953125 8.15625 39.421875 C8.24976182 44.77903779 8.35585044 50.13574739 8.47363281 55.49243164 C8.51192995 57.31495324 8.54678155 59.13755063 8.578125 60.96020508 C8.62375979 63.57921441 8.68175622 66.19770174 8.7421875 68.81640625 C8.75373871 69.63212601 8.76528992 70.44784576 8.77719116 71.2882843 C8.87822274 75.15552004 8.9639819 77.13347285 11.15625 80.421875 C14.17509316 80.89505862 14.17509316 80.89505862 17.59375 80.921875 C23.70558219 81.08576771 23.70558219 81.08576771 26.015625 82.80859375 C27.60929328 85.06265196 27.96380464 86.66349146 28.15625 89.421875 C27.41137896 92.80765244 26.78844838 94.8107499 24.28125 97.234375 C17.73639574 100.89179356 7.98712242 100.43595896 0.79296875 98.92578125 C-4.24168157 96.94987636 -7.56893549 93.37754981 -10.46606445 88.93310547 C-12.37296436 84.07309581 -12.21703954 79.72703306 -12.13671875 74.5546875 C-12.13247391 73.51996307 -12.12822906 72.48523865 -12.12385559 71.41915894 C-12.10711996 68.12812819 -12.06947649 64.83771934 -12.03125 61.546875 C-12.01619658 59.3099047 -12.00250933 57.07292477 -11.99023438 54.8359375 C-11.95723322 49.36437267 -11.90708468 43.89316828 -11.84375 38.421875 C-12.77445313 38.463125 -13.70515625 38.504375 -14.6640625 38.546875 C-17.84375 38.421875 -17.84375 38.421875 -20.71875 36.421875 C-23.65523802 32.27624485 -23.5589953 30.42859211 -22.84375 25.421875 C-21.28125 22.921875 -21.28125 22.921875 -18.84375 21.421875 C-16.51118497 21.36200167 -14.1761689 21.35655638 -11.84375 21.421875 C-11.90175781 20.32488281 -11.95976563 19.22789062 -12.01953125 18.09765625 C-12.06644688 16.64327186 -12.11194511 15.18884126 -12.15625 13.734375 C-12.2190918 12.6525293 -12.2190918 12.6525293 -12.28320312 11.54882812 C-12.37740438 7.42281332 -12.17063767 5.85772522 -9.60546875 2.4375 C-6.05674507 -0.15251615 -4.23974141 -0.25438448 0 0 Z " fill="#F3F3F2" transform="translate(725.84375,186.578125)"/>
<path d="M0 0 C4.07491908 1.02374814 5.23147512 3.06478568 7.37890625 6.59765625 C7.70890625 7.58765625 8.03890625 8.57765625 8.37890625 9.59765625 C9.10078125 8.66953125 9.82265625 7.74140625 10.56640625 6.78515625 C13.68869862 3.1266253 16.02589318 0.88170105 21 0.28125 C28.50346677 -0.02765766 28.50346677 -0.02765766 32.00390625 2.47265625 C34.0993545 5.71107628 34.50517778 7.21600025 34.12890625 11.03515625 C34.061875 11.81761719 33.99484375 12.60007813 33.92578125 13.40625 C33.26287785 16.06259863 32.56967949 16.9741368 30.37890625 18.59765625 C28.14453125 19.3359375 28.14453125 19.3359375 25.62890625 19.91015625 C19.51937102 21.64683172 15.29023052 24.24118435 12.09765625 29.84765625 C9.27405611 35.97890226 8.26236186 40.99877225 8.203125 47.77734375 C8.17992735 49.19532735 8.15581003 50.61329616 8.13085938 52.03125 C8.09578629 54.25189155 8.0664103 56.47198647 8.05297852 58.69287109 C8.03742661 60.84669005 7.99718415 62.99894315 7.953125 65.15234375 C7.93854248 66.43608887 7.92395996 67.71983398 7.90893555 69.04248047 C7.29274861 73.17555931 5.98914242 75.37122821 3.37890625 78.59765625 C0.39723388 79.90959209 -2.39790551 79.94897262 -5.62109375 79.59765625 C-11.01868411 76.80247553 -11.01868411 76.80247553 -12.62109375 73.59765625 C-12.73842537 71.50588216 -12.79089255 69.41036482 -12.81396484 67.31542969 C-12.82214233 66.67128616 -12.83031982 66.02714264 -12.83874512 65.36347961 C-12.86359152 63.22800626 -12.88011497 61.09259945 -12.89453125 58.95703125 C-12.89985493 58.22717262 -12.9051786 57.497314 -12.9106636 56.74533844 C-12.93739475 52.88052928 -12.95676777 49.01575238 -12.97119141 45.15087891 C-12.98452099 41.95560007 -13.01235383 38.76096134 -13.05322266 35.56591797 C-13.10260091 31.70559852 -13.12731885 27.8458589 -13.13441849 23.98523712 C-13.14112227 22.51643802 -13.15632192 21.04765141 -13.1803093 19.5790329 C-13.37949164 6.64379135 -13.37949164 6.64379135 -10.24462891 2.69921875 C-6.60177799 -0.21885874 -4.51318702 -0.26231638 0 0 Z " fill="#F3F3F2" transform="translate(862.62109375,206.40234375)"/>
<path d="M0 0 C6.63902239 6.19935204 12.39684117 15.2695634 13.89453125 24.33984375 C13.56453125 25.98984375 13.23453125 27.63984375 12.89453125 29.33984375 C8.93453125 29.33984375 4.97453125 29.33984375 0.89453125 29.33984375 C0.39824219 28.25445312 -0.09804687 27.1690625 -0.609375 26.05078125 C-5.42301096 15.11735427 -5.42301096 15.11735427 -14.10546875 7.33984375 C-14.78222656 6.94667969 -15.45898438 6.55351562 -16.15625 6.1484375 C-24.99467422 1.64288199 -34.72928407 1.31575825 -44.10546875 4.33984375 C-52.35706542 7.57815509 -57.66927272 13.08980428 -61.390625 21.109375 C-62.0856753 22.85073757 -62.75174818 24.60414405 -63.37890625 26.37109375 C-64.10546875 28.33984375 -64.10546875 28.33984375 -65.10546875 29.33984375 C-67.12511074 29.41228428 -69.14713999 29.42361563 -71.16796875 29.40234375 C-72.82505859 29.38880859 -72.82505859 29.38880859 -74.515625 29.375 C-75.37027344 29.36339844 -76.22492188 29.35179687 -77.10546875 29.33984375 C-79.05177201 22.71751631 -76.01553296 17.2774807 -73.10546875 11.33984375 C-65.82878554 -0.07239478 -55.32938334 -7.78602082 -42.3125 -11.4453125 C-26.85809479 -14.73673025 -12.22767504 -9.64148774 0 0 Z " fill="#A41518" transform="translate(241.10546875,129.66015625)"/>
<path d="M0 0 C3.56196344 0.06167902 4.74950281 0.10024596 7.6875 2.25 C10.55636636 6.49093289 10.27968384 10.16759768 10.28613281 15.15161133 C10.29109772 16.06070755 10.29606262 16.96980377 10.30117798 17.90644836 C10.3158202 20.92331694 10.32260529 23.94013293 10.328125 26.95703125 C10.33387509 29.0496979 10.33963284 31.14236452 10.34539795 33.23503113 C10.35591403 37.62747443 10.36175261 42.01989939 10.36523438 46.41235352 C10.37071809 52.04158603 10.39474103 57.67057654 10.42320633 63.29973316 C10.44182826 67.62429004 10.44703809 71.9487886 10.44857025 76.27338219 C10.45159869 78.34862274 10.45963362 80.42386222 10.47275543 82.49906349 C10.48980525 85.4029646 10.48793812 88.30627425 10.48144531 91.21020508 C10.4906601 92.06805603 10.49987488 92.92590698 10.5093689 93.80975342 C10.47660574 98.48620536 10.17335468 101.58300888 7.125 105.375 C3.00373311 107.89355199 -0.26993538 107.46346982 -4.875 106.375 C-7.3125 104.9375 -7.3125 104.9375 -8.875 103.375 C-8.875 102.715 -8.875 102.055 -8.875 101.375 C-7.2483152 101.65711877 -5.62367104 101.95102375 -4 102.25 C-3.09507812 102.41242188 -2.19015625 102.57484375 -1.2578125 102.7421875 C1.125 103.375 1.125 103.375 3.125 105.375 C4.84972197 101.92555605 5.29542931 98.43368666 5.6875 94.625 C5.81318359 93.42617188 5.81318359 93.42617188 5.94140625 92.203125 C6.00199219 91.59984375 6.06257812 90.9965625 6.125 90.375 C6.455 90.375 6.785 90.375 7.125 90.375 C7.125 85.095 7.125 79.815 7.125 74.375 C6.795 74.375 6.465 74.375 6.125 74.375 C6.125 69.755 6.125 65.135 6.125 60.375 C6.455 60.375 6.785 60.375 7.125 60.375 C7.455 53.445 7.785 46.515 8.125 39.375 C7.465 39.375 6.805 39.375 6.125 39.375 C6.125 37.065 6.125 34.755 6.125 32.375 C6.785 32.375 7.445 32.375 8.125 32.375 C7.795 30.065 7.465 27.755 7.125 25.375 C6.795 25.375 6.465 25.375 6.125 25.375 C6.02734375 19.22265625 6.02734375 19.22265625 6.125 17.375 C6.455 17.045 6.785 16.715 7.125 16.375 C7.63420646 11.79214189 7.96930392 7.73887557 5.5 3.75 C2.41954763 1.96658021 0.63489896 1.86313973 -2.875 2.375 C-5.15433259 3.32598812 -5.15433259 3.32598812 -6.875 5.375 C-7.30146001 8.07928288 -7.4798041 10.3962552 -7.484375 13.10546875 C-7.50091125 13.85588943 -7.51744751 14.60631012 -7.53448486 15.37947083 C-7.58303052 17.77389656 -7.60434885 20.16768702 -7.625 22.5625 C-7.65315443 24.18688103 -7.68308112 25.81123239 -7.71484375 27.43554688 C-7.78879039 31.41531227 -7.83832417 35.39472367 -7.875 39.375 C-9.75 39.0625 -9.75 39.0625 -11.875 38.375 C-12.535 37.385 -13.195 36.395 -13.875 35.375 C-12.885 35.705 -11.895 36.035 -10.875 36.375 C-10.86041748 35.52268799 -10.84583496 34.67037598 -10.83081055 33.79223633 C-10.76956715 30.61428825 -10.69537971 27.43697454 -10.61254883 24.25952148 C-10.57940194 22.88724042 -10.55133829 21.51482638 -10.52856445 20.14233398 C-10.49483234 18.16362234 -10.4409851 16.18528624 -10.38671875 14.20703125 C-10.36053467 13.01827393 -10.33435059 11.8295166 -10.30737305 10.60473633 C-9.4485207 4.18928873 -6.57649777 0.09757415 0 0 Z " fill="#FCFCFC" transform="translate(600.875,178.625)"/>
<path d="M0 0 C0.99 0.495 0.99 0.495 2 1 C2 25.42 2 49.84 2 75 C45.89 75 89.78 75 135 75 C131.08369453 76.95815274 129.725304 77.24851591 125.54571533 77.24050903 C124.43796249 77.24325836 123.33020966 77.24600769 122.18888855 77.24884033 C120.97832291 77.24164978 119.76775726 77.23445923 118.52050781 77.22705078 C117.24220596 77.22734283 115.96390411 77.22763489 114.64686584 77.22793579 C111.14509197 77.22850951 107.64345517 77.21675207 104.14171314 77.20278788 C100.48085538 77.19028379 96.81999447 77.18911027 93.15911865 77.18673706 C86.22831676 77.18052134 79.29757799 77.16410929 72.36680388 77.14403808 C63.00013386 77.11750154 53.63344657 77.10670718 44.26674843 77.09503365 C29.51111835 77.07622876 14.75562145 77.03638372 0 77 C0 51.59 0 26.18 0 0 Z " fill="#951F24" transform="translate(174,164)"/>
<path d="M0 0 C21.78 0 43.56 0 66 0 C66 17.82 66 35.64 66 54 C71.94 54 77.88 54 84 54 C84 54.33 84 54.66 84 55 C80.85418577 55.02888514 77.70840531 55.04675923 74.5625 55.0625 C73.66466797 55.07087891 72.76683594 55.07925781 71.84179688 55.08789062 C70.56079102 55.09272461 70.56079102 55.09272461 69.25390625 55.09765625 C68.46314697 55.10289307 67.6723877 55.10812988 66.85766602 55.11352539 C65 55 65 55 64 54 C63.90659566 52.37325222 63.88254829 50.74245949 63.88647461 49.11303711 C63.88659546 48.05741577 63.88671631 47.00179443 63.88684082 45.91418457 C63.89195679 44.7965271 63.89707275 43.67886963 63.90234375 42.52734375 C63.90335083 41.50612427 63.90435791 40.48490479 63.90539551 39.43273926 C63.91064585 35.60098149 63.92460697 31.76923967 63.9375 27.9375 C63.958125 19.378125 63.97875 10.81875 64 2 C42.88 2 21.76 2 0 2 C0 1.34 0 0.68 0 0 Z " fill="#9A1D21" transform="translate(178,164)"/>
<path d="M0 0 C7.1775 -0.12375 7.1775 -0.12375 14.5 -0.25 C15.99337891 -0.28641602 17.48675781 -0.32283203 19.02539062 -0.36035156 C27.55964759 -0.43150863 33.3169432 -0.05300699 39.9453125 5.68359375 C43.6964095 11.26055584 43.02563597 15.69647524 41.80859375 22.14453125 C40.92110538 25.27860852 40.03222188 27.34210034 37.22265625 29.1328125 C26.66236579 33.98328949 16.35074597 33.07707808 5 32 C5 31.67 5 31.34 5 31 C5.56396484 30.98018066 6.12792969 30.96036133 6.70898438 30.93994141 C9.30639574 30.84368189 11.90311103 30.73441948 14.5 30.625 C15.8303125 30.57859375 15.8303125 30.57859375 17.1875 30.53125 C25.00373369 30.18641616 32.11544089 29.70623913 38 24 C40.10766163 19.78467673 39.50812615 14.57911328 39 10 C37.77037213 6.84495483 36.8297433 6.19449481 34 4 C27.10440138 1.55519685 19.66527998 1.58412202 12.4375 1.375 C11.33341797 1.33632812 10.22933594 1.29765625 9.09179688 1.2578125 C6.39468875 1.16440616 3.6975723 1.07863524 1 1 C1.16298584 1.86963379 1.32597168 2.73926758 1.49389648 3.63525391 C1.96574117 6.77223578 2.11468255 9.66904654 2.09765625 12.8359375 C2.09443359 13.89941406 2.09121094 14.96289062 2.08789062 16.05859375 C2.07951172 17.15300781 2.07113281 18.24742187 2.0625 19.375 C2.05798828 20.49261719 2.05347656 21.61023438 2.04882812 22.76171875 C2.03709244 25.50786804 2.02067363 28.25390586 2 31 C2.66 31.33 3.32 31.66 4 32 C2.68 32 1.36 32 0 32 C0 21.44 0 10.88 0 0 Z " fill="#FDFDFD" transform="translate(381,201)"/>
<path d="M0 0 C6.39037231 -0.02527062 12.78073183 -0.04283317 19.17114258 -0.05493164 C21.34692873 -0.05997308 23.52271147 -0.06680607 25.69848633 -0.07543945 C28.81853067 -0.08751338 31.93853038 -0.09323005 35.05859375 -0.09765625 C36.52733192 -0.10539818 36.52733192 -0.10539818 38.02574158 -0.11329651 C39.37702904 -0.11340981 39.37702904 -0.11340981 40.75561523 -0.11352539 C41.95141457 -0.11685631 41.95141457 -0.11685631 43.17137146 -0.12025452 C45 0 45 0 46 1 C46.09353163 2.68801985 46.11744791 4.37995207 46.11352539 6.07055664 C46.11344986 7.15160172 46.11337433 8.23264679 46.11329651 9.34645081 C46.10813522 10.5224736 46.10297394 11.6984964 46.09765625 12.91015625 C46.0962413 14.10732773 46.09482635 15.30449921 46.09336853 16.53794861 C46.08774979 20.37949066 46.07519411 24.22097543 46.0625 28.0625 C46.05748741 30.65950437 46.05292409 33.25650965 46.04882812 35.85351562 C46.03777427 42.23569679 46.02101792 48.6178443 46 55 C45.34 55 44.68 55 44 55 C44 37.51 44 20.02 44 2 C34.75753684 2.0391816 34.75753684 2.0391816 25.51513672 2.09008789 C16.95344403 2.10816037 8.52846888 1.73744901 0 1 C0 0.67 0 0.34 0 0 Z " fill="#961F22" transform="translate(130,273)"/>
<path d="M0 0 C5.35684878 -0.02470696 10.71366444 -0.04286331 16.07055664 -0.05493164 C17.89315366 -0.0599624 19.71574665 -0.06678769 21.53833008 -0.07543945 C24.15707394 -0.08755997 26.77576447 -0.09324086 29.39453125 -0.09765625 C30.61811089 -0.10539818 30.61811089 -0.10539818 31.8664093 -0.11329651 C35.17013929 -0.1136246 37.84323138 -0.05225621 41 1 C41 1.66 41 2.32 41 3 C21.695 2.505 21.695 2.505 2 2 C2.33 5.96 2.66 9.92 3 14 C2.67 16.64 2.34 19.28 2 22 C11.24 22 20.48 22 30 22 C30 22.99 30 23.98 30 25 C29.67 24.67 29.34 24.34 29 24 C26.93877513 23.92455253 24.87500232 23.91689787 22.8125 23.9375 C20.92917969 23.94910156 20.92917969 23.94910156 19.0078125 23.9609375 C17.67186955 23.97338621 16.33593187 23.98641425 15 24 C12.39578994 24.02648349 9.79182697 24.04645692 7.1875 24.0625 C6.02605469 24.07410156 4.86460937 24.08570313 3.66796875 24.09765625 C1 24 1 24 0 23 C-0.08713831 21.29227642 -0.10700007 19.58101351 -0.09765625 17.87109375 C-0.09443359 16.83662109 -0.09121094 15.80214844 -0.08789062 14.73632812 C-0.07951172 13.64771484 -0.07113281 12.55910156 -0.0625 11.4375 C-0.05798828 10.34501953 -0.05347656 9.25253906 -0.04882812 8.12695312 C-0.03699826 5.41791505 -0.02051543 2.70898401 0 0 Z " fill="#981E20" transform="translate(254,164)"/>
<path d="M0 0 C0.33 0 0.66 0 1 0 C1.0093457 0.60996826 1.01869141 1.21993652 1.02832031 1.84838867 C1.08221326 4.62889487 1.16582069 7.40775262 1.25 10.1875 C1.26417969 11.14720703 1.27835938 12.10691406 1.29296875 13.09570312 C1.32519531 14.02705078 1.35742188 14.95839844 1.390625 15.91796875 C1.41157227 16.77156982 1.43251953 17.6251709 1.45410156 18.50463867 C2.20499031 21.93703308 3.45358401 23.59307023 6 26 C8.96336962 26.75946167 8.96336962 26.75946167 12.26171875 26.671875 C13.46248047 26.69636719 14.66324219 26.72085937 15.90039062 26.74609375 C17.15013672 26.74738281 18.39988281 26.74867188 19.6875 26.75 C22.17062142 26.78298986 24.65370219 26.81926165 27.13671875 26.859375 C28.23717529 26.86420898 29.33763184 26.86904297 30.47143555 26.87402344 C33 27 33 27 34 28 C34.0991657 29.62257544 34.13079777 31.24939831 34.1328125 32.875 C34.13474609 34.35226562 34.13474609 34.35226562 34.13671875 35.859375 C34.13285156 36.89578125 34.12898438 37.9321875 34.125 39 C34.13080078 40.55460937 34.13080078 40.55460937 34.13671875 42.140625 C34.13542969 43.12546875 34.13414062 44.1103125 34.1328125 45.125 C34.13168457 46.03507812 34.13055664 46.94515625 34.12939453 47.8828125 C34 50 34 50 33 51 C30.13732433 51.07325168 27.299281 51.09238205 24.4375 51.0625 C23.63119141 51.05798828 22.82488281 51.05347656 21.99414062 51.04882812 C19.99606244 51.03700518 17.99802217 51.01906914 16 51 C16.33 50.34 16.66 49.68 17 49 C21.95 49 26.9 49 32 49 C32 42.4 32 35.8 32 29 C29.23689453 29.03480469 29.23689453 29.03480469 26.41796875 29.0703125 C24.00781654 29.08906855 21.59765997 29.10726892 19.1875 29.125 C17.97255859 29.14175781 16.75761719 29.15851563 15.50585938 29.17578125 C14.34248047 29.18222656 13.17910156 29.18867188 11.98046875 29.1953125 C10.37014771 29.21102295 10.37014771 29.21102295 8.72729492 29.22705078 C6 29 6 29 3 27 C3 26.34 3 25.68 3 25 C2.34 25 1.68 25 1 25 C-1.30768504 20.42111506 -1.26855798 16.37499732 -1.1875 11.375 C-1.18685547 10.611875 -1.18621094 9.84875 -1.18554688 9.0625 C-1.15975172 5.79511421 -1.03955395 3.11866185 0 0 Z " fill="#9D2024" transform="translate(130,278)"/>
<path d="M0 0 C0 0.66 0 1.32 0 2 C-2.22656346 4.22656346 -3.03509172 4.32230668 -6 5 C-7.68076231 5.63028587 -9.34795544 6.29788106 -11 7 C-11.721875 7.28875 -12.44375 7.5775 -13.1875 7.875 C-15.52871196 9.32816604 -16.06699384 10.41629064 -17 13 C-17.38290462 14.99110401 -17.72604615 16.99100513 -18 19 C-18.66 18.67 -19.32 18.34 -20 18 C-20 18.99 -20 19.98 -20 21 C-21 23.1875 -21 23.1875 -22 25 C-22.66 24.67 -23.32 24.34 -24 24 C-24.93822801 30.68307032 -25.02971771 37.15697567 -24.625 43.875 C-24.58189697 44.60001709 -24.53879395 45.32503418 -24.49438477 46.07202148 C-24.24266869 49.78666234 -23.83963524 53.37106805 -23 57 C-26.27589643 54.81606905 -26.71263464 53.73697163 -27.63378906 50.03320312 C-30.05732688 36.57772119 -27.93562319 24.47386791 -20.25 13.1875 C-15.27544485 6.70297746 -8.69256641 0 0 0 Z " fill="#FDFDFD" transform="translate(926,208)"/>
<path d="M0 0 C10.96105371 1.65776659 24.20168043 4.787077 31.45703125 13.8125 C35.88959955 20.35277368 37.57715183 27.06416233 37 35 C36.45507933 37.39577189 35.76421883 39.65957982 35 42 C34.01 41.505 34.01 41.505 33 41 C33 38.03 33 35.06 33 32 C32.34 32 31.68 32 31 32 C30.97301811 30.37509046 30.95361243 28.75005367 30.9375 27.125 C30.92589844 26.22007812 30.91429687 25.31515625 30.90234375 24.3828125 C31 22 31 22 32 20 C28.96561085 14.94268475 26.41182561 12.01432653 20.6875 10.3125 C20.130625 10.209375 19.57375 10.10625 19 10 C19.33 9.67 19.66 9.34 20 9 C17.69 8.67 15.38 8.34 13 8 C13.33 7.01 13.66 6.02 14 5 C12.205625 4.8453125 12.205625 4.8453125 10.375 4.6875 C6.4375824 4.21108648 3.45859625 2.98869284 0 1 C0 0.67 0 0.34 0 0 Z " fill="#FBFAFA" transform="translate(662,224)"/>
<path d="M0 0 C1 3 1 3 0.07958984 6.22045898 C-1.04476672 10.15672401 -1.2542075 13.38991869 -1.2734375 17.47265625 C-1.29371381 18.88086751 -1.31456434 20.28907059 -1.3359375 21.69726562 C-1.3585489 23.88491814 -1.37502599 26.07224557 -1.38085938 28.26000977 C-1.39042118 30.39396644 -1.4242147 32.52651761 -1.4609375 34.66015625 C-1.47326416 36.55713257 -1.47326416 36.55713257 -1.48583984 38.49243164 C-2.08864072 42.60470147 -3.40325803 44.7915328 -6 48 C-8.97237818 49.23893402 -11.80458696 49.26723205 -15 49 C-18.0625 47.625 -18.0625 47.625 -20 46 C-20 45.67 -20 45.34 -20 45 C-19.00097656 44.93941406 -18.00195312 44.87882812 -16.97265625 44.81640625 C-15.68230469 44.73261719 -14.39195312 44.64882813 -13.0625 44.5625 C-11.77472656 44.48128906 -10.48695313 44.40007812 -9.16015625 44.31640625 C-6.13976043 44.35080812 -6.13976043 44.35080812 -5 43 C-4.85305567 40.92365383 -4.77238673 38.84256693 -4.71875 36.76171875 C-4.68136719 35.46556641 -4.64398437 34.16941406 -4.60546875 32.83398438 C-4.5698909 31.4518337 -4.53473691 30.06967206 -4.5 28.6875 C-4.26045185 19.42683716 -3.89486628 10.22342147 -3 1 C-2.01 0.67 -1.02 0.34 0 0 Z " fill="#FCFDFB" transform="translate(872,237)"/>
<path d="M0 0 C6.63438637 -0.10214499 13.26856697 -0.17177544 19.90356445 -0.21972656 C22.15657123 -0.23973464 24.40952679 -0.26694991 26.66235352 -0.30175781 C29.91695867 -0.35075342 33.17087217 -0.37307756 36.42578125 -0.390625 C37.91553215 -0.42159271 37.91553215 -0.42159271 39.43537903 -0.45318604 C49.92100767 -0.45648543 59.31749419 2.69889519 67 10 C70.01168643 13.80423549 71.67018152 17.34563533 73 22 C71.515 22.495 71.515 22.495 70 23 C69.34 22.67 68.68 22.34 68 22 C67.505 23.485 67.505 23.485 67 25 C67.06960938 24.35933594 67.13921875 23.71867187 67.2109375 23.05859375 C67.50723811 18.32483882 67.56133573 14.92271108 64.5 11.125 C55.85839133 2.56396577 44.33588149 1.82138472 32.75390625 1.875 C29.35644561 1.90034164 25.9596203 1.94624506 22.5625 2 C19.14714846 2.05327073 15.73201672 2.09313207 12.31640625 2.125 C11.15232994 2.14989502 11.15232994 2.14989502 9.96473694 2.17529297 C6.02803845 2.2111664 3.41977707 1.91442929 0 0 Z " fill="#FCFCFC" transform="translate(369,185)"/>
<path d="M0 0 C0.495 1.485 0.495 1.485 1 3 C0.30132812 3.02578125 -0.39734375 3.0515625 -1.1171875 3.078125 C-2.48230469 3.16320312 -2.48230469 3.16320312 -3.875 3.25 C-4.77992188 3.29640625 -5.68484375 3.3428125 -6.6171875 3.390625 C-7.40351563 3.59171875 -8.18984375 3.7928125 -9 4 C-9.69293346 5.31987327 -10.36127221 6.65305938 -11 8 C-12.84765625 8.328125 -12.84765625 8.328125 -15.0625 8.25 C-21.3421563 8.63612773 -24.90163188 12.54638221 -29 17 C-29.66 17.99 -30.32 18.98 -31 20 C-31.66 20 -32.32 20 -33 20 C-33.12375 20.598125 -33.2475 21.19625 -33.375 21.8125 C-34 24 -34 24 -36 27 C-36.66 27 -37.32 27 -38 27 C-38.33 27.66 -38.66 28.32 -39 29 C-39.43972985 24.50676043 -38.39147073 22.57711633 -35.5625 19.125 C-25.98771892 7.82003918 -14.65832392 1.89962805 0 0 Z " fill="#971C1D" transform="translate(207,117)"/>
<path d="M0 0 C3.29769631 0.64520145 4.97782423 1.90307021 7.15625 4.421875 C8.11336086 7.99427604 8.31859086 11.42104534 8.34375 15.109375 C8.35792969 16.06199219 8.37210938 17.01460937 8.38671875 17.99609375 C8.15625 20.421875 8.15625 20.421875 6.15625 22.421875 C5.82625 16.811875 5.49625 11.201875 5.15625 5.421875 C4.16625 5.091875 3.17625 4.761875 2.15625 4.421875 C1.16625 3.761875 0.17625 3.101875 -0.84375 2.421875 C-5.35225182 2.76633098 -5.35225182 2.76633098 -8.84375 5.421875 C-9.80944051 9.62052938 -10.00215859 13.56646861 -9.21875 17.796875 C-8.84375 20.421875 -8.84375 20.421875 -9.90625 22.234375 C-11.84375 23.421875 -11.84375 23.421875 -14.78125 23.859375 C-18.38354103 24.52102029 -19.53251124 25.66616725 -21.84375 28.421875 C-22.17375 27.431875 -22.50375 26.441875 -22.84375 25.421875 C-21.28125 23.421875 -21.28125 23.421875 -18.84375 21.421875 C-16.51178201 21.34206433 -14.17545842 21.33481004 -11.84375 21.421875 C-11.90175781 20.32488281 -11.95976563 19.22789062 -12.01953125 18.09765625 C-12.06644688 16.64327186 -12.11194511 15.18884126 -12.15625 13.734375 C-12.2190918 12.6525293 -12.2190918 12.6525293 -12.28320312 11.54882812 C-12.37740438 7.42281332 -12.17063767 5.85772522 -9.60546875 2.4375 C-6.05674507 -0.15251615 -4.23974141 -0.25438448 0 0 Z " fill="#FDFDFD" transform="translate(725.84375,186.578125)"/>
<path d="M0 0 C0 4.15269579 -1.60610841 7.38206496 -3.125 11.2109375 C-3.99592288 13.98700419 -4.16794177 16.11350084 -4 19 C-3.67 19 -3.34 19 -3 19 C-3 20.98 -3 22.96 -3 25 C-3.66 25 -4.32 25 -5 25 C-4.19462911 32.88542249 -3.38108912 39.86003933 2 46 C2.66 46.33 3.32 46.66 4 47 C4.268125 47.7425 4.53625 48.485 4.8125 49.25 C6.26830812 52.62134511 8.32061465 54.53214507 11 57 C2.66938229 53.29750324 -2.42393808 46.33202573 -5.875 38.0625 C-9.03184434 27.30654532 -8.3247254 13.86587916 -3 4 C-2.03061324 2.64424667 -1.03861596 1.30347791 0 0 Z " fill="#FDFDFD" transform="translate(457,223)"/>
<path d="M0 0 C0 0.99 0 1.98 0 3 C-2.31 3 -4.62 3 -7 3 C-7 3.33 -7 3.66 -7 4 C-8.19496094 4.01417969 -9.38992188 4.02835938 -10.62109375 4.04296875 C-23.23414933 4.11055024 -23.23414933 4.11055024 -34 10 C-37.11539811 13.41495562 -39.53232507 16.59697521 -41 21 C-41.66 21 -42.32 21 -43 21 C-41.30074994 13.77818726 -38.78152483 9.96694629 -32.4375 5.875 C-21.83517663 -0.11292062 -11.84702481 -0.40134212 0 0 Z M-6 3 C-4.35 3 -2.7 3 -1 3 C-1.99 3.66 -2.98 4.32 -4 5 C-4.66 4.34 -5.32 3.68 -6 3 Z " fill="#FDFDFD" transform="translate(669,183)"/>
<path d="M0 0 C0.33 0.66 0.66 1.32 1 2 C27.73 1.505 27.73 1.505 55 1 C55 1.99 55 2.98 55 4 C36.85 4 18.7 4 0 4 C0 2.68 0 1.36 0 0 Z " fill="#932024" transform="translate(108,237)"/>
<path d="M0 0 C0.33 0 0.66 0 1 0 C1.10957031 0.88042969 1.21914063 1.76085937 1.33203125 2.66796875 C1.49058594 3.82941406 1.64914062 4.99085938 1.8125 6.1875 C1.96332031 7.33605469 2.11414063 8.48460937 2.26953125 9.66796875 C3.01032896 13.04711554 3.95355736 15.22856135 6 18 C6.680625 18.165 7.36125 18.33 8.0625 18.5 C9.0215625 18.7475 9.0215625 18.7475 10 19 C10.27714844 19.77988281 10.55429687 20.55976563 10.83984375 21.36328125 C12.60692252 25.37936935 15.34493483 26.15193926 19.1875 27.93359375 C22.737838 29.27976358 26.22540768 30.048324 29.96875 30.640625 C32 31 32 31 34 32 C36.3329866 32.04022391 38.66706666 32.04320247 41 32 C40.34 32.99 39.68 33.98 39 35 C26.52043602 34.35450531 13.17238639 29.94711127 4.625 20.5 C0.71832335 15.87309805 -0.25691976 11.68984898 -0.125 5.6875 C-0.10695313 4.61886719 -0.08890625 3.55023438 -0.0703125 2.44921875 C-0.04710937 1.64097656 -0.02390625 0.83273438 0 0 Z " fill="#FDFDFD" transform="translate(625,209)"/>
<path d="M0 0 C4.87939176 1.39411193 7.10832229 3.90345657 10 8 C10.8125 10.875 10.8125 10.875 11 13 C12.32 13.33 13.64 13.66 15 14 C14.02416992 16.46948242 14.02416992 16.46948242 12 19 C9.01027293 19.45411351 6.59504217 19.58521264 3.61328125 19.48828125 C2.79627243 19.48120651 1.97926361 19.47413177 1.13749695 19.46684265 C-1.47176737 19.43885512 -4.0788846 19.37611306 -6.6875 19.3125 C-8.45634921 19.28742256 -10.22523207 19.26460842 -11.99414062 19.24414062 C-16.33025424 19.18901471 -20.66476315 19.10271575 -25 19 C-21.26368357 16.60045456 -17.97204502 16.77006313 -13.609375 16.8046875 C-12.55245453 16.80893234 -12.55245453 16.80893234 -11.47418213 16.81326294 C-9.2326124 16.82442199 -6.99144814 16.84951807 -4.75 16.875 C-3.22656829 16.88503536 -1.70313029 16.89416024 -0.1796875 16.90234375 C3.54700586 16.92434709 7.27346333 16.95884728 11 17 C10.37619308 15.58280758 9.7508997 14.1662694 9.125 12.75 C8.77695312 11.96109375 8.42890625 11.1721875 8.0703125 10.359375 C7.71710938 9.58078125 7.36390625 8.8021875 7 8 C6.66871094 7.26523438 6.33742188 6.53046875 5.99609375 5.7734375 C4.7172421 3.49658004 3.33512156 3.05457103 1 2 C0.67 1.34 0.34 0.68 0 0 Z " fill="#FBFBFB" transform="translate(494,222)"/>
<path d="M0 0 C7.3404509 2.06450181 13.24991732 8.22895243 16.96875 14.69921875 C20.06782556 21.61344416 21.92778842 29.44515146 21 37 C19 40 19 40 17 42 C16.34 41.67 15.68 41.34 15 41 C15.99 39.35 16.98 37.7 18 36 C17.505 35.505 17.505 35.505 17 35 C16.95758277 32.66705225 16.95907063 30.33297433 17 28 C17 25.51496535 16.13029123 24.19409474 15 22 C14.67 21.01 14.34 20.02 14 19 C14.66 19 15.32 19 16 19 C9.8884728 8.57370089 9.8884728 8.57370089 0 2 C0 1.34 0 0.68 0 0 Z " fill="#FDFDFD" transform="translate(504,210)"/>
<path d="M0 0 C-3.03790502 1.73293889 -5.46125791 2.31075365 -8.9375 2.5625 C-12.35995823 2.84559846 -15.64776968 3.21781292 -19 4 C-19 4.66 -19 5.32 -19 6 C-20.010625 6.474375 -21.02125 6.94875 -22.0625 7.4375 C-29.4356488 11.66995662 -33.70562345 19.01815481 -36 27 C-36.20367188 27.67804688 -36.40734375 28.35609375 -36.6171875 29.0546875 C-37.09873402 30.69722289 -37.55254333 32.34785228 -38 34 C-38.33 34 -38.66 34 -39 34 C-38.48965142 21.5474946 -33.82439423 14.68579118 -25 6 C-17.9987526 0.04012807 -8.91012277 -1.95588061 0 0 Z " fill="#FEFEFD" transform="translate(572,207)"/>
<path d="M0 0 C0.495 1.485 0.495 1.485 1 3 C-9.43996474 13.12705027 -19.17181266 15.47316806 -33.40234375 15.30078125 C-39.06287642 15.07380122 -43.93375726 13.499644 -49 11 C-48.67 10.34 -48.34 9.68 -48 9 C-47.278125 9.309375 -46.55625 9.61875 -45.8125 9.9375 C-43.17586013 10.93356395 -40.76854335 11.51550491 -38 12 C-37.236875 12.185625 -36.47375 12.37125 -35.6875 12.5625 C-30.38887991 13.42506606 -25.2201689 13.30504222 -20 12 C-20 11.67 -20 11.34 -20 11 C-19.443125 10.91363281 -18.88625 10.82726562 -18.3125 10.73828125 C-11.3912884 9.46393655 -5.67872887 7.09728026 -1 1.6875 C-0.67 1.130625 -0.34 0.57375 0 0 Z " fill="#FDFDFD" transform="translate(967,271)"/>
<path d="M0 0 C1.32 0.33 2.64 0.66 4 1 C4 1.66 4 2.32 4 3 C6.97 3 9.94 3 13 3 C13 3.66 13 4.32 13 5 C14.01320313 5.07347656 14.01320313 5.07347656 15.046875 5.1484375 C16.38492188 5.26058594 16.38492188 5.26058594 17.75 5.375 C19.07257812 5.47941406 19.07257812 5.47941406 20.421875 5.5859375 C23.017456 6.00280354 24.67675164 6.83133567 27 8 C32.96433491 8.67284084 39.08199414 7.75149281 45 7 C45 7.66 45 8.32 45 9 C29.59292507 12.79816559 13.61192815 9.61906598 0 2 C0 1.34 0 0.68 0 0 Z " fill="#FEFDFD" transform="translate(631,276)"/>
<path d="M0 0 C0.99 0.33 1.98 0.66 3 1 C2.01 1.66 1.02 2.32 0 3 C-0.66 3.99 -1.32 4.98 -2 6 C-2 5.34 -2 4.68 -2 4 C-2.66 4 -3.32 4 -4 4 C-4 4.66 -4 5.32 -4 6 C-7.96 7.98 -7.96 7.98 -12 10 C-12 10.33 -12 10.66 -12 11 C-15.63 11 -19.26 11 -23 11 C-23.33 10.34 -23.66 9.68 -24 9 C-25.134375 8.525625 -26.26875 8.05125 -27.4375 7.5625 C-31 6 -31 6 -33 3 C-32.236875 3.309375 -31.47375 3.61875 -30.6875 3.9375 C-26.29531275 5.67394612 -22.91386403 6.18959918 -18.1875 6.25 C-16.38345703 6.28867187 -16.38345703 6.28867187 -14.54296875 6.328125 C-9.62725645 5.87286609 -6.38519509 3.9019875 -2.3125 1.25 C-1.549375 0.8375 -0.78625 0.425 0 0 Z " fill="#FCFCFB" transform="translate(508,262)"/>
<path d="M0 0 C0.83496002 0.00424484 1.66992004 0.00848969 2.53018188 0.01286316 C5.17931285 0.02956542 7.8276641 0.067201 10.4765625 0.10546875 C12.27993688 0.12052655 14.08332326 0.13421304 15.88671875 0.14648438 C20.291964 0.17944113 24.69663136 0.23116406 29.1015625 0.29296875 C29.1015625 0.95296875 29.1015625 1.61296875 29.1015625 2.29296875 C27.48314453 2.31484253 27.48314453 2.31484253 25.83203125 2.3371582 C21.79866709 2.39547813 17.76584169 2.47270668 13.73291016 2.55541992 C11.99309078 2.58851168 10.25316811 2.61659182 8.51318359 2.6394043 C6.00053209 2.6732423 3.48881384 2.72556901 0.9765625 2.78125 C0.20852295 2.78763992 -0.5595166 2.79402985 -1.35083008 2.8006134 C-6.77524548 2.94567828 -10.90303224 4.16447018 -15.8984375 6.29296875 C-14.8984375 3.29296875 -14.8984375 3.29296875 -12.39208984 1.6237793 C-8.07691653 -0.01996702 -4.56800025 -0.08838676 0 0 Z " fill="#9B2123" transform="translate(133.8984375,163.70703125)"/>
<path d="M0 0 C0.66 0 1.32 0 2 0 C3.34331654 1.99330842 4.67594012 3.99384866 6 6 C8.94414048 7.96276032 9.80204933 8.25476379 13.125 8.5 C14.40375 8.665 15.6825 8.83 17 9 C17.33 9.66 17.66 10.32 18 11 C24.05805937 11.31884523 27.54104943 10.56891792 33 8 C33.99 8 34.98 8 36 8 C36.33 6.35 36.66 4.7 37 3 C37.33 3 37.66 3 38 3 C38.3125 5.25 38.3125 5.25 38 8 C32.95637927 13.04362073 28.59651928 13.16667514 21.6875 13.25 C14.29039278 13.24556635 9.94848829 12.48983455 4.1875 7.625 C2.08702001 5.10442401 0.97690173 3.10832367 0 0 Z " fill="#FDFDFC" transform="translate(715,273)"/>
<path d="M0 0 C0.53625 0.144375 1.0725 0.28875 1.625 0.4375 C4.39915827 1.09453748 7.18525388 1.55219948 10 2 C10 2.66 10 3.32 10 4 C12.31 4.33 14.62 4.66 17 5 C17 5.66 17 6.32 17 7 C24.04440079 7.21133202 30.24112575 7.07965362 37 5 C37.495 6.485 37.495 6.485 38 8 C27.76523741 11.32227896 14.28001925 9.67957494 4.84375 4.91015625 C3.1985909 3.99291477 1.59337007 3.00451591 0 2 C0 1.34 0 0.68 0 0 Z " fill="#FDFDFC" transform="translate(773,277)"/>
<path d="M0 0 C2.17616183 1.17449889 3.60683786 2.25408944 5.1640625 4.16796875 C5.1640625 4.82796875 5.1640625 5.48796875 5.1640625 6.16796875 C6.1540625 6.49796875 7.1440625 6.82796875 8.1640625 7.16796875 C7.5040625 7.16796875 6.8440625 7.16796875 6.1640625 7.16796875 C6.6590625 8.21984375 7.1540625 9.27171875 7.6640625 10.35546875 C8.99186038 13.42249484 9.47121256 15.78931811 9.1640625 19.16796875 C7.48208234 16.64499852 6.46458871 14.56842985 5.3515625 11.79296875 C3.12890167 6.74892296 0.70811274 3.22308785 -4.5390625 1.046875 C-8.23478961 0.06163969 -11.3925511 -0.02907628 -15.2109375 0.04296875 C-17.07878906 0.07003906 -17.07878906 0.07003906 -18.984375 0.09765625 C-19.92539062 0.12085938 -20.86640625 0.1440625 -21.8359375 0.16796875 C-15.90152607 -5.76644268 -6.79295344 -2.81422357 0 0 Z " fill="#FDFDFD" transform="translate(810.8359375,224.83203125)"/>
<path d="M0 0 C12.53582804 1.92858893 22.47144753 5.24403286 32 14 C31.34 14.66 30.68 15.32 30 16 C25.125 13.25 25.125 13.25 24 11 C16.48972865 6.7862218 8.23984283 4.34488373 0 2 C0 1.34 0 0.68 0 0 Z " fill="#9C1B22" transform="translate(210,117)"/>
<path d="M0 0 C8.58838053 -0.71240023 15.9081731 1.38822878 24 4 C24 4.66 24 5.32 24 6 C27.69455123 7.23151708 31.16645038 7.72505768 35 7 C37.5404226 4.66169042 37.5404226 4.66169042 39 2 C39.495 2.99 39.495 2.99 40 4 C36.25 8.875 36.25 8.875 34 10 C27.77760077 10.18417249 23.49085007 8.36221152 18.25390625 5.2109375 C12.21176189 1.96472476 5.71616132 1.75577595 -1 2 C-0.67 1.34 -0.34 0.68 0 0 Z " fill="#FEFEFE" transform="translate(655,199)"/>
<path d="M0 0 C0 0.66 0 1.32 0 2 C-7.00444001 4.6753801 -14.02925342 4.2222309 -21.4375 4.125 C-22.74138672 4.11597656 -24.04527344 4.10695313 -25.38867188 4.09765625 C-28.59263832 4.07418397 -31.79622264 4.04134727 -35 4 C-31.54537823 1.92543397 -28.5809528 1.62544742 -24.58984375 1.3671875 C-22.73456055 1.24150391 -22.73456055 1.24150391 -20.84179688 1.11328125 C-18.90916992 0.99533203 -18.90916992 0.99533203 -16.9375 0.875 C-15.64521484 0.78863281 -14.35292969 0.70226562 -13.02148438 0.61328125 C-3.69084821 0 -3.69084821 0 0 0 Z " fill="#A02227" transform="translate(296,325)"/>
<path d="M0 0 C0.33 0.99 0.66 1.98 1 3 C0.29875 3.0825 -0.4025 3.165 -1.125 3.25 C-4.72837379 4.19001055 -7.0685172 5.71995782 -10 8 C-11.09166275 9.93330603 -11.09166275 9.93330603 -12 12 C-12.763125 12.680625 -13.52625 13.36125 -14.3125 14.0625 C-18.07821709 18.17851635 -19.89347478 22.88159191 -22 28 C-23.39168428 23.82494716 -22.16718023 21.72072241 -20.49609375 17.765625 C-16.82244435 10.97464909 -8.42493064 0 0 0 Z " fill="#FEFEFE" transform="translate(782,210)"/>
<path d="M0 0 C4.30437823 0.46134335 7.18158265 1.93828485 10.75390625 4.21484375 C15.31687566 7.03105143 19.7748368 9.38912306 24.75390625 11.40234375 C21.63116137 12.7763515 20.54490266 12.3239674 17.25390625 11.08984375 C11.6406987 8.38347583 11.6406987 8.38347583 9.75390625 7.40234375 C9.75390625 6.74234375 9.75390625 6.08234375 9.75390625 5.40234375 C5.22349066 3.13713595 1.72398924 2.84120535 -3.24609375 3.40234375 C-5.25328871 5.58097194 -5.25328871 5.58097194 -6.24609375 8.40234375 C-6.63796875 9.16546875 -7.02984375 9.92859375 -7.43359375 10.71484375 C-7.83578125 11.55015625 -7.83578125 11.55015625 -8.24609375 12.40234375 C-8.73485021 8.29678951 -8.37492189 6.61315343 -6.18359375 3.02734375 C-3.24609375 0.40234375 -3.24609375 0.40234375 0 0 Z " fill="#FEFEFE" transform="translate(630.24609375,256.59765625)"/>
<path d="M0 0 C4.58151466 1.52717155 7.79607006 3.59214011 10 8 C10.99 8.66 11.98 9.32 13 10 C13 12.97 13 15.94 13 19 C7.06 19 1.12 19 -5 19 C-5 18.67 -5 18.34 -5 18 C-1.32612505 17.14701624 2.0447393 16.89210529 5.8125 16.9375 C6.78832031 16.94652344 7.76414062 16.95554688 8.76953125 16.96484375 C9.50558594 16.97644531 10.24164062 16.98804688 11 17 C8.63725988 10.08337529 6.82611426 5.41305713 0 2 C0 1.34 0 0.68 0 0 Z " fill="#FCFCFC" transform="translate(942,222)"/>
<path d="M0 0 C0.66 0 1.32 0 2 0 C1.65578444 2.54719517 1.35158086 4.49566331 -0.1328125 6.625 C-2.87054063 8.64106758 -5.19559923 8.52118767 -8.5625 8.6875 C-9.8103125 8.75066406 -11.058125 8.81382812 -12.34375 8.87890625 C-26.00712758 9.33143264 -26.00712758 9.33143264 -31 8 C-30.67 7.34 -30.34 6.68 -30 6 C-29.22809326 6.01047363 -28.45618652 6.02094727 -27.66088867 6.03173828 C-24.16979212 6.07326454 -20.67874751 6.09931557 -17.1875 6.125 C-15.97255859 6.14175781 -14.75761719 6.15851563 -13.50585938 6.17578125 C-11.76079102 6.18544922 -11.76079102 6.18544922 -9.98046875 6.1953125 C-8.90692139 6.20578613 -7.83337402 6.21625977 -6.72729492 6.22705078 C-3.78066259 6.20315543 -3.78066259 6.20315543 -1 4 C-0.27617533 1.94074861 -0.27617533 1.94074861 0 0 Z " fill="#FDFDFD" transform="translate(971,244)"/>
<path d="M0 0 C0.495 1.485 0.495 1.485 1 3 C-6.78373505 10.50842609 -14.92745989 14.1707254 -25.75 14.0625 C-26.92046875 14.05347656 -28.0909375 14.04445313 -29.296875 14.03515625 C-30.18890625 14.02355469 -31.0809375 14.01195312 -32 14 C-32 13.67 -32 13.34 -32 13 C-31.09636719 12.86722656 -30.19273437 12.73445313 -29.26171875 12.59765625 C-28.08222656 12.42105469 -26.90273438 12.24445313 -25.6875 12.0625 C-24.51574219 11.88847656 -23.34398437 11.71445312 -22.13671875 11.53515625 C-14.68669055 10.26410536 -6.48197374 7.30513588 -1 2 C-0.67 1.34 -0.34 0.68 0 0 Z " fill="#FDFDFC" transform="translate(518,272)"/>
<path d="M0 0 C5.21159701 2.1134077 6.71660865 6.1059312 9 11 C10.88516246 15.63061732 12.49098052 19.92653467 12 25 C11.34 24.67 10.68 24.34 10 24 C9.5859375 21.93359375 9.5859375 21.93359375 9.375 19.4375 C9.26285156 18.19806641 9.26285156 18.19806641 9.1484375 16.93359375 C9.07496094 15.97646484 9.07496094 15.97646484 9 15 C8.01 15 7.02 15 6 15 C5.62875 13.1746875 5.62875 13.1746875 5.25 11.3125 C4.29278506 7.39346783 2.68421942 5.04211534 0 2 C0 1.34 0 0.68 0 0 Z " fill="#FDFDFD" transform="translate(961,217)"/>
<path d="M0 0 C0.66 0 1.32 0 2 0 C3.625 2.5 3.625 2.5 5 5 C5.66 4.34 6.32 3.68 7 3 C7.33 5.97 7.66 8.94 8 12 C8.66 12 9.32 12 10 12 C10.28875 12.763125 10.5775 13.52625 10.875 14.3125 C11.96269013 17.15029308 11.96269013 17.15029308 14 20 C7.53789998 17.10319654 4.227686 12.06710932 1.625 5.625 C0 1.25203252 0 1.25203252 0 0 Z " fill="#FDFDFD" transform="translate(759,257)"/>
<path d="M0 0 C0.33 0.99 0.66 1.98 1 3 C0.34 3 -0.32 3 -1 3 C-1 3.763125 -1 4.52625 -1 5.3125 C-1 9.58068252 -1.11936613 13.80046637 -1.375 18.0625 C-1.44460938 19.31160156 -1.51421875 20.56070313 -1.5859375 21.84765625 C-2 25 -2 25 -4 27 C-4.11654436 23.4377769 -4.1873639 19.87604658 -4.25 16.3125 C-4.28351562 15.30509766 -4.31703125 14.29769531 -4.3515625 13.25976562 C-4.45112665 5.71778097 -4.45112665 5.71778097 -1.984375 1.79296875 C-1.32953125 1.20128906 -0.6746875 0.60960937 0 0 Z " fill="#FDFDFD" transform="translate(854,208)"/>
<path d="M0 0 C9.57 0.33 19.14 0.66 29 1 C29 1.99 29 2.98 29 4 C28.67 3.67 28.34 3.34 28 3 C25.92737924 2.91232888 23.85179706 2.89304127 21.77734375 2.90234375 C19.88725586 2.90717773 19.88725586 2.90717773 17.95898438 2.91210938 C16.61848891 2.92046597 15.27799412 2.92893093 13.9375 2.9375 C12.59310058 2.9425134 11.2486994 2.94707658 9.90429688 2.95117188 C6.60282059 2.96300512 3.30143197 2.97949029 0 3 C0 2.01 0 1.02 0 0 Z " fill="#922525" transform="translate(255,185)"/>
<path d="M0 0 C9.57 0 19.14 0 29 0 C29 0.33 29 0.66 29 1 C28.28972656 1.06058594 27.57945312 1.12117188 26.84765625 1.18359375 C25.92855469 1.26738281 25.00945312 1.35117187 24.0625 1.4375 C23.14597656 1.51871094 22.22945312 1.59992188 21.28515625 1.68359375 C19.03840268 1.76044976 19.03840268 1.76044976 18 3 C15.33997189 3.15317991 12.7237812 3.23159875 10.0625 3.25 C9.32064453 3.270625 8.57878906 3.29125 7.81445312 3.3125 C5.66015625 3.328125 5.66015625 3.328125 2 3 C1.34 2.01 0.68 1.02 0 0 Z " fill="#97111C" transform="translate(128,326)"/>
<path d="M0 0 C0 0.66 0 1.32 0 2 C-1.0725 2.515625 -2.145 3.03125 -3.25 3.5625 C-8.11962968 6.33247154 -10.10598277 10.09444399 -11.75 15.4375 C-11.8325 15.953125 -11.915 16.46875 -12 17 C-10.02 17 -8.04 17 -6 17 C-6.33 17.66 -6.66 18.32 -7 19 C-8.98 19 -10.96 19 -13 19 C-13.94587837 16.47765768 -14.20642459 14.65214392 -13.38671875 12.0625 C-10.96435403 6.79909024 -6.4838352 0 0 0 Z " fill="#FCFCFC" transform="translate(931,222)"/>
<path d="M0 0 C0.33 0 0.66 0 1 0 C0.85831863 1.43791516 0.71148957 2.8753237 0.5625 4.3125 C0.48128906 5.11300781 0.40007812 5.91351563 0.31640625 6.73828125 C0 9 0 9 -1 12 C0.62600941 11.9129995 2.25089678 11.8048219 3.875 11.6875 C4.77992188 11.62949219 5.68484375 11.57148438 6.6171875 11.51171875 C9.36221601 11.2117961 9.36221601 11.2117961 11 8 C11.042721 9.66611905 11.04063832 11.33382885 11 13 C10 14 10 14 7.27734375 14.09765625 C5.62412109 14.08025391 5.62412109 14.08025391 3.9375 14.0625 C2.28041016 14.04896484 2.28041016 14.04896484 0.58984375 14.03515625 C-0.26480469 14.02355469 -1.11945313 14.01195312 -2 14 C-3.02756439 10.16874998 -2.9457076 7.89449638 -1.5625 4.1875 C-1.13130859 3.00220703 -1.13130859 3.00220703 -0.69140625 1.79296875 C-0.46324219 1.20128906 -0.23507813 0.60960937 0 0 Z " fill="#9E2322" transform="translate(166,145)"/>
<path d="M0 0 C0.33 0.99 0.66 1.98 1 3 C0.34 3 -0.32 3 -1 3 C-1.33 3.99 -1.66 4.98 -2 6 C-3.9609375 7.3515625 -3.9609375 7.3515625 -6.375 8.625 C-7.16648437 9.05039062 -7.95796875 9.47578125 -8.7734375 9.9140625 C-12.59323184 11.77704992 -15.48550103 12.11193528 -19.6875 12.0625 C-20.68136719 12.05347656 -21.67523437 12.04445313 -22.69921875 12.03515625 C-23.83810547 12.01775391 -23.83810547 12.01775391 -25 12 C-25 11.67 -25 11.34 -25 11 C-24.07058594 10.82984375 -23.14117188 10.6596875 -22.18359375 10.484375 C-13.09717415 8.70309566 -6.344926 7.10631712 0 0 Z " fill="#FEFEFD" transform="translate(589,274)"/>
<path d="M0 0 C1.12864861 3.38594583 1.00116807 3.72345148 -0.5 6.75 C-3.33220416 12.05180779 -7.06772532 17.06416765 -12.9375 18.9375 C-13.618125 18.958125 -14.29875 18.97875 -15 19 C-12.66666667 16.66666667 -10.33333333 14.33333333 -8 12 C-8.66 11.67 -9.32 11.34 -10 11 C-8.35 10.34 -6.7 9.68 -5 9 C-5 8.34 -5 7.68 -5 7 C-4 6 -3 5 -2 4 C-0.82425289 1.90010348 -0.82425289 1.90010348 0 0 Z " fill="#FBFBFB" transform="translate(440,225)"/>
<path d="M0 0 C2 1 2 1 3.125 3.9375 C4.9283465 10.85269485 4.2103631 18.04041215 3 25 C2.67 25 2.34 25 2 25 C1.34 16.75 0.68 8.5 0 0 Z " fill="#A21D24" transform="translate(307,178)"/>
<path d="M0 0 C-2.5732519 2.5732519 -4.75914102 2.94523529 -8.25 3.9375 C-12.79422565 5.2306149 -16.82489777 6.77960473 -21 9 C-19.67172893 5.01518678 -18.12813163 4.68322066 -14.4375 2.8125 C-9.23996604 0.29756421 -5.70578962 -0.65836034 0 0 Z " fill="#FEFDFD" transform="translate(485,207)"/>
<path d="M0 0 C9.14166085 -0.62805304 9.14166085 -0.62805304 12.5625 1.875 C14.99857924 5.47616061 15.09430093 7.66215726 15 12 C14.34 12 13.68 12 13 12 C12.938125 10.906875 12.87625 9.81375 12.8125 8.6875 C12.35719736 4.97029702 12.35719736 4.97029702 9.9375 3.0625 C6.07163509 1.66420844 3.09806991 1.79162356 -1 2 C-0.67 1.34 -0.34 0.68 0 0 Z " fill="#FDFDFD" transform="translate(882,207)"/>
<path d="M0 0 C0.33 0.99 0.66 1.98 1 3 C0.30132812 3.02578125 -0.39734375 3.0515625 -1.1171875 3.078125 C-2.02726563 3.13484375 -2.93734375 3.1915625 -3.875 3.25 C-4.77992188 3.29640625 -5.68484375 3.3428125 -6.6171875 3.390625 C-9.17110544 3.75611148 -9.17110544 3.75611148 -10.3203125 6.046875 C-10.54460937 6.69140625 -10.76890625 7.3359375 -11 8 C-11.99 7.34 -12.98 6.68 -14 6 C-13.01 6 -12.02 6 -11 6 C-11 4.68 -11 3.36 -11 2 C-5.555 1.01 -5.555 1.01 0 0 Z " fill="#8E1D1F" transform="translate(207,117)"/>
<path d="M0 0 C0.5625 1.9375 0.5625 1.9375 1 4 C0 5 0 5 -2.72265625 5.09765625 C-4.37587891 5.08025391 -4.37587891 5.08025391 -6.0625 5.0625 C-7.71958984 5.04896484 -7.71958984 5.04896484 -9.41015625 5.03515625 C-10.26480469 5.02355469 -11.11945313 5.01195312 -12 5 C-12.33 3.68 -12.66 2.36 -13 1 C-12.01 1.495 -12.01 1.495 -11 2 C-9.29636178 2.22622081 -7.58671299 2.40888473 -5.875 2.5625 C-4.96492187 2.64628906 -4.05484375 2.73007813 -3.1171875 2.81640625 C-2.41851562 2.87699219 -1.71984375 2.93757812 -1 3 C-0.67 2.01 -0.34 1.02 0 0 Z " fill="#9B2120" transform="translate(254,154)"/>
<path d="M0 0 C1.31538327 4.15771494 0.34433068 6.8879297 -1 11 C-1.66 11 -2.32 11 -3 11 C-3.66 12.32 -4.32 13.64 -5 15 C-5.99 14.67 -6.98 14.34 -8 14 C-6.8553125 12.7625 -6.8553125 12.7625 -5.6875 11.5 C-2.70294364 7.95583932 -1.43446489 4.37889283 0 0 Z " fill="#FDFDFD" transform="translate(819,250)"/>
<path d="M0 0 C4.95 0.99 9.9 1.98 15 3 C14.34 3.66 13.68 4.32 13 5 C8.4029922 4.64638402 4.31900631 3.58012426 0 2 C0 1.34 0 0.68 0 0 Z " fill="#8E1B1C" transform="translate(210,117)"/>
<path d="M0 0 C1.39376181 2.78752362 0.73839757 4.52265515 0.1875 7.5625 C0.01605469 8.55378906 -0.15539062 9.54507813 -0.33203125 10.56640625 C-0.55246094 11.36949219 -0.77289062 12.17257813 -1 13 C-1.99 13.495 -1.99 13.495 -3 14 C-3.33 10.7 -3.66 7.4 -4 4 C-3.34 4 -2.68 4 -2 4 C-1.34 2.68 -0.68 1.36 0 0 Z " fill="#FCFCFC" transform="translate(779,235)"/>
<path d="M0 0 C3.35250701 0.57575664 4.93818629 1.59306263 7.25 4.0625 C8.03117187 4.88427734 8.03117187 4.88427734 8.828125 5.72265625 C9.21484375 6.14417969 9.6015625 6.56570312 10 7 C9.67 7.99 9.34 8.98 9 10 C7.8274869 9.04882866 6.66212985 8.08882991 5.5 7.125 C4.8503125 6.59132812 4.200625 6.05765625 3.53125 5.5078125 C3.0259375 5.01023438 2.520625 4.51265625 2 4 C2 3.34 2 2.68 2 2 C1.34 2 0.68 2 0 2 C0 1.34 0 0.68 0 0 Z " fill="#962024" transform="translate(296,167)"/>
<path d="M0 0 C0.66 0 1.32 0 2 0 C1.67 7.26 1.34 14.52 1 22 C0.67 22 0.34 22 0 22 C-0.19696449 18.89635771 -0.38093262 15.79207808 -0.5625 12.6875 C-0.61857422 11.80642578 -0.67464844 10.92535156 -0.73242188 10.01757812 C-0.78076172 9.17001953 -0.82910156 8.32246094 -0.87890625 7.44921875 C-0.9260376 6.66893311 -0.97316895 5.88864746 -1.02172852 5.0847168 C-1 3 -1 3 0 0 Z " fill="#EFEDEB" transform="translate(867,246)"/>
<path d="M0 0 C0.66 0.33 1.32 0.66 2 1 C1.071875 1.680625 0.14375 2.36125 -0.8125 3.0625 C-4.31386639 5.94305675 -5.50631023 8.76787899 -7 13 C-8.23896243 10.07154334 -7.99614276 8.98949975 -6.875 5.9375 C-4.8607247 2.78180203 -3.4086223 1.48580972 0 0 Z " fill="#FEFEFE" transform="translate(651,200)"/>
<path d="M0 0 C8.57142857 1.71428571 8.57142857 1.71428571 12 6 C7.39146203 5.27991594 3.32762591 3.68704061 -1 2 C-0.67 1.34 -0.34 0.68 0 0 Z " fill="#911A1D" transform="translate(217,130)"/>
<path d="M0 0 C0.33 0.66 0.66 1.32 1 2 C-1.63886654 6.2026393 -4.36440339 9.56638098 -8 13 C-8.66 12.67 -9.32 12.34 -10 12 C-6.66666667 8 -3.33333333 4 0 0 Z " fill="#FEFEFE" transform="translate(695,267)"/>
<path d="M0 0 C4.7517398 0.43197635 6.92000054 1.32769295 10 5 C9.01 5.495 9.01 5.495 8 6 C6.0546875 5.22265625 6.0546875 5.22265625 3.875 4.0625 C3.15054688 3.68222656 2.42609375 3.30195312 1.6796875 2.91015625 C1.12539062 2.60980469 0.57109375 2.30945313 0 2 C0 1.34 0 0.68 0 0 Z " fill="#942224" transform="translate(223,121)"/>
<path d="M0 0 C3.3 0 6.6 0 10 0 C9.67 1.32 9.34 2.64 9 4 C4.53159589 3.50351065 3.31012244 3.31012244 0 0 Z " fill="#FDFDFC" transform="translate(852,282)"/>
<path d="M0 0 C0.66 0.33 1.32 0.66 2 1 C1.401875 1.680625 0.80375 2.36125 0.1875 3.0625 C-2.23587643 6.31674834 -3.5252401 9.23936225 -5 13 C-5.33 13 -5.66 13 -6 13 C-5.63118644 6.85310727 -4.09949571 4.30972626 0 0 Z " fill="#9F2224" transform="translate(115,171)"/>
<path d="M0 0 C3.4375 1.25 3.4375 1.25 7 3 C7.33 4.32 7.66 5.64 8 7 C5.36 5.68 2.72 4.36 0 3 C0 2.01 0 1.02 0 0 Z " fill="#FEFEFE" transform="translate(960,261)"/>
<path d="M0 0 C1.63001953 0.15275391 1.63001953 0.15275391 3.29296875 0.30859375 C4.54013672 0.43427734 4.54013672 0.43427734 5.8125 0.5625 C3.8125 2.5625 3.8125 2.5625 0.9921875 2.7578125 C-0.09835938 2.73460937 -1.18890625 2.71140625 -2.3125 2.6875 C-3.40820312 2.66945312 -4.50390625 2.65140625 -5.6328125 2.6328125 C-6.47585937 2.60960937 -7.31890625 2.58640625 -8.1875 2.5625 C-8.5175 1.9025 -8.8475 1.2425 -9.1875 0.5625 C-5.76060364 -0.57979879 -3.57647782 -0.34611076 0 0 Z " fill="#A61A23" transform="translate(178.1875,251.4375)"/>
<path d="M0 0 C0.33 0.99 0.66 1.98 1 3 C3.97 3 6.94 3 10 3 C6.00889681 4.9955516 4.30013434 5.19546065 0 5 C-0.33 4.34 -0.66 3.68 -1 3 C-0.67 2.01 -0.34 1.02 0 0 Z " fill="#9A1D21" transform="translate(255,324)"/>
<path d="M0 0 C0.99 0 1.98 0 3 0 C3.33 2.31 3.66 4.62 4 7 C3.34 7 2.68 7 2 7 C0.5393715 4.35261084 0 3.10551666 0 0 Z " fill="#931B1C" transform="translate(238,147)"/>
<path d="M0 0 C0.33 0 0.66 0 1 0 C0.96744792 2.01822917 0.93489583 4.03645833 0.90234375 6.0546875 C0.87350758 8.08185404 0.87350758 8.08185404 2 10 C0.35 10.66 -1.3 11.32 -3 12 C-2.690625 11.319375 -2.38125 10.63875 -2.0625 9.9375 C-0.86629351 6.63034088 -0.40994603 3.48454122 0 0 Z " fill="#ECECEA" transform="translate(695,257)"/>
<path d="M0 0 C0 3 0 3 -2.375 5.6875 C-5 8 -5 8 -7 8 C-5.50902342 4.2047869 -3.24299151 2.38957269 0 0 Z " fill="#FEFEFE" transform="translate(787,225)"/>
<path d="M0 0 C0.66 0.33 1.32 0.66 2 1 C-1.465 3.97 -1.465 3.97 -5 7 C-5.66 6.67 -6.32 6.34 -7 6 C-2.25 1.125 -2.25 1.125 0 0 Z " fill="#9B2325" transform="translate(190,135)"/>
<path d="M0 0 C0 0.66 0 1.32 0 2 C-5.41176471 6 -5.41176471 6 -8 6 C-6.72879117 2.18637351 -4.19078006 0 0 0 Z " fill="#9D2425" transform="translate(189,123)"/>
<path d="M0 0 C1.875 0.625 1.875 0.625 4 2 C5.25 5.125 5.25 5.125 6 8 C5.34 8 4.68 8 4 8 C2.21694476 5.36107824 1.00940379 3.02821137 0 0 Z " fill="#992123" transform="translate(244,136)"/>
</svg>
