<?xml version="1.0" encoding="UTF-8"?>
<svg version="1.1" xmlns="http://www.w3.org/2000/svg" width="1080" height="589">
<path d="M0 0 C23.1 0 46.2 0 70 0 C70 17.82 70 35.64 70 54 C83.86 53.67 97.72 53.34 112 53 C111.896875 48.936875 111.79375 44.87375 111.6875 40.6875 C111.66260498 39.40963623 111.63770996 38.13177246 111.61206055 36.81518555 C111.57894775 35.8075415 111.54583496 34.79989746 111.51171875 33.76171875 C111.48553467 32.73006592 111.45935059 31.69841309 111.43237305 30.63549805 C111.17616488 28.02500445 111.17616488 28.02500445 109.86914062 26.171875 C107.11417326 24.44462273 104.81440324 24.56141184 101.58203125 24.48828125 C100.32841797 24.45283203 99.07480469 24.41738281 97.78320312 24.38085938 C96.47287109 24.35830078 95.16253906 24.33574219 93.8125 24.3125 C92.47717987 24.27932334 91.14189168 24.24483334 89.80664062 24.20898438 C86.53784496 24.12637943 83.26932188 24.05726771 80 24 C79.97112764 20.18751574 79.95324508 16.3750593 79.9375 12.5625 C79.92912109 11.47388672 79.92074219 10.38527344 79.91210938 9.26367188 C79.90888672 8.22919922 79.90566406 7.19472656 79.90234375 6.12890625 C79.89710693 5.17056885 79.89187012 4.21223145 79.88647461 3.22485352 C80 1 80 1 81 0 C83.41582331 -0.12590362 85.80143388 -0.18866196 88.21875 -0.203125 C88.95065552 -0.20882507 89.68256104 -0.21452515 90.43664551 -0.22039795 C91.9935562 -0.22986861 93.55048712 -0.23639009 95.10742188 -0.24023438 C97.4626117 -0.24984739 99.81689375 -0.28080976 102.171875 -0.3125 C112.65238102 -0.38766034 121.52606731 -0.09558257 129.5 7.3984375 C145.84705182 24.85232095 137 59.35301193 137 77 C91.79 77 46.58 77 0 77 C0 51.59 0 26.18 0 0 Z " fill="#A7171D" transform="translate(174,235)"/>
<path d="M0 0 C45.21 0 90.42 0 137 0 C137 25.41 137 50.82 137 77 C113.9 77 90.8 77 67 77 C67 59.18 67 41.36 67 23 C52.81 23 38.62 23 24 23 C24.12375 26.8775 24.2475 30.755 24.375 34.75 C24.40899902 35.96655273 24.44299805 37.18310547 24.47802734 38.43652344 C24.53144287 39.88333496 24.53144287 39.88333496 24.5859375 41.359375 C24.63306885 42.83615723 24.63306885 42.83615723 24.68115234 44.34277344 C25.00501299 47.0417775 25.5368138 48.72364368 27 51 C29.73233158 52.36616579 32.01190444 52.19821243 35.06640625 52.28125 C36.8772168 52.33732422 36.8772168 52.33732422 38.72460938 52.39453125 C41.28710643 52.46495102 43.84960644 52.53526319 46.41210938 52.60546875 C47.61802734 52.64285156 48.82394531 52.68023437 50.06640625 52.71875 C51.17959229 52.74904297 52.29277832 52.77933594 53.43969727 52.81054688 C56 53 56 53 57 54 C57.0991657 55.62257544 57.13079777 57.24939831 57.1328125 58.875 C57.13474609 60.35226562 57.13474609 60.35226562 57.13671875 61.859375 C57.13285156 62.89578125 57.12898438 63.9321875 57.125 65 C57.13080078 66.55460937 57.13080078 66.55460937 57.13671875 68.140625 C57.13542969 69.12546875 57.13414062 70.1103125 57.1328125 71.125 C57.13168457 72.03507812 57.13055664 72.94515625 57.12939453 73.8828125 C57 76 57 76 56 77 C53.53490152 77.13843504 51.09993145 77.21317572 48.6328125 77.23828125 C47.88345428 77.246353 47.13409607 77.25442474 46.36203003 77.26274109 C44.76644212 77.27660938 43.1708242 77.28731919 41.57519531 77.29516602 C39.16931597 77.31218649 36.7648817 77.35601864 34.359375 77.40039062 C15.24530479 77.59579238 15.24530479 77.59579238 8.0480957 71.28979492 C-8.76310946 53.21132024 0 18.81906572 0 0 Z " fill="#A9181D" transform="translate(107,323)"/>
<path d="M0 0 C0.81644485 -0.00095673 1.63288971 -0.00191345 2.47407532 -0.00289917 C4.20138628 -0.00357891 5.92869982 -0.00173899 7.65600586 0.00244141 C10.27398573 0.00775808 12.89179132 0.00250733 15.50976562 -0.00390625 C17.19401079 -0.00324476 18.87825585 -0.00196213 20.5625 0 C21.33470383 -0.00202423 22.10690765 -0.00404846 22.9025116 -0.00613403 C36.29505465 0.05036431 46.55819762 2.07714921 56.47265625 11.7421875 C63.1831676 19.23640821 63.36342653 27.17153238 63.0078125 36.86328125 C62.66247661 41.90080001 61.33460625 45.88244871 58.61328125 50.1328125 C58.19046875 50.94492187 57.76765625 51.75703125 57.33203125 52.59375 C55.2488758 55.67113873 52.97060267 57.33184822 49.92578125 59.4453125 C48.93191406 60.14269531 47.93804687 60.84007812 46.9140625 61.55859375 C46.15480469 62.07808594 45.39554687 62.59757812 44.61328125 63.1328125 C44.94537598 63.60066162 45.2774707 64.06851074 45.61962891 64.55053711 C48.80888911 69.04680769 51.98395644 73.55276787 55.15136719 78.06445312 C56.33462282 79.73855829 57.53741601 81.39884326 58.74609375 83.0546875 C61.05033334 86.28284924 62.49305144 88.43815138 63.17578125 92.3828125 C62.37266428 96.30916215 61.11050787 99.00989254 57.86328125 101.4453125 C54.06617161 102.60554045 50.31693234 102.78916392 46.57910156 101.34912109 C44.31894192 99.95069644 43.19340408 98.58587612 41.66015625 96.421875 C41.12672607 95.67679687 40.5932959 94.93171875 40.04370117 94.1640625 C39.4891626 93.37 38.93462402 92.5759375 38.36328125 91.7578125 C37.79134033 90.95085937 37.21939941 90.14390625 36.63012695 89.3125 C34.94626102 86.92712218 33.27684145 84.53238444 31.61328125 82.1328125 C31.15679199 81.47635742 30.70030273 80.81990234 30.22998047 80.14355469 C23.61328125 70.5829301 23.61328125 70.5829301 23.61328125 68.1328125 C22.95328125 68.1328125 22.29328125 68.1328125 21.61328125 68.1328125 C21.61328125 67.4728125 21.61328125 66.8128125 21.61328125 66.1328125 C15.34328125 66.1328125 9.07328125 66.1328125 2.61328125 66.1328125 C2.66548828 69.18595703 2.66548828 69.18595703 2.71875 72.30078125 C2.73961834 74.2832733 2.76037718 76.26576814 2.77807617 78.24829102 C2.79311557 79.62075767 2.81355258 80.99317664 2.83959961 82.36547852 C2.87619346 84.34369906 2.89144823 86.32227764 2.90625 88.30078125 C2.92196045 89.48953857 2.9376709 90.6782959 2.95385742 91.90307617 C2.57978389 95.4504731 1.72406435 97.29096513 -0.38671875 100.1328125 C-3.27271024 102.12580253 -5.43104253 102.39576146 -8.88671875 102.0703125 C-9.63953125 102.01746094 -10.39234375 101.96460938 -11.16796875 101.91015625 C-14.49649216 100.74400104 -15.50917681 99.10400081 -17.38671875 96.1328125 C-17.96770403 93.21415026 -17.94391512 90.35145091 -17.92016602 87.3828125 C-17.92878159 86.51229248 -17.93739716 85.64177246 -17.9462738 84.74487305 C-17.96893453 81.8738818 -17.96219521 79.00386649 -17.953125 76.1328125 C-17.95836027 74.13411163 -17.96463639 72.13541324 -17.97190857 70.13671875 C-17.98231277 65.95040246 -17.97775053 61.76442608 -17.96313477 57.578125 C-17.94594062 52.2143657 -17.9694501 46.85167697 -18.00462437 41.48803711 C-18.02658716 37.36158149 -18.02515969 33.23538252 -18.01685905 29.10888672 C-18.01603905 27.13133571 -18.02291189 25.15376594 -18.03763008 23.17626953 C-18.05505681 20.41111458 -18.04055002 17.64788987 -18.01782227 14.8828125 C-18.02951447 14.06707764 -18.04120667 13.25134277 -18.05325317 12.41088867 C-17.983208 8.22099996 -17.73218035 6.58313449 -15.09727478 3.1484375 C-10.28241506 -0.43199084 -5.8352083 -0.01509834 0 0 Z M2.61328125 19.1328125 C2.61328125 28.7028125 2.61328125 38.2728125 2.61328125 48.1328125 C8.27484375 48.1946875 8.27484375 48.1946875 14.05078125 48.2578125 C15.22181396 48.27602051 16.39284668 48.29422852 17.59936523 48.31298828 C29.24735334 48.5205051 29.24735334 48.5205051 39.17578125 43.2578125 C42.28977446 39.10872099 42.40019413 35.0076513 42.140625 29.94921875 C41.33147657 25.62776677 39.92725754 23.99488293 36.61328125 21.1328125 C33.018879 18.78200474 29.89170139 18.90163945 25.66015625 18.9375 C24.66982391 18.94174484 24.66982391 18.94174484 23.65948486 18.94607544 C21.56056228 18.95722835 19.46207383 18.98232304 17.36328125 19.0078125 C15.9362041 19.01784866 14.50912023 19.0269734 13.08203125 19.03515625 C9.59214802 19.05544627 6.10319787 19.09460173 2.61328125 19.1328125 Z " fill="#1C2528" transform="translate(379.38671875,254.8671875)"/>
<path d="M0 0 C2.8100346 1.79363911 4.50940468 3.01880935 6 6 C6.11437038 8.96351495 6.16787439 11.90405386 6.17700195 14.8684082 C6.18357315 15.787258 6.19014435 16.70610779 6.19691467 17.65280151 C6.21667105 20.70212886 6.22831518 23.75140692 6.23828125 26.80078125 C6.24235678 27.84079977 6.2464323 28.88081829 6.25063133 29.95235252 C6.27150158 35.45643288 6.28579944 40.96048822 6.29516602 46.46459961 C6.30623534 52.15443656 6.34063875 57.84388295 6.38033772 63.53358173 C6.40646186 67.90446203 6.4148541 72.27524867 6.41844749 76.64620018 C6.42332394 78.74378282 6.43496789 80.841361 6.45348549 82.93886757 C6.47778837 85.87403079 6.47692805 88.80817554 6.4699707 91.7434082 C6.48278076 92.61060989 6.49559082 93.47781158 6.50878906 94.37129211 C6.47357584 98.44509691 6.31588939 100.49472416 4.10710144 104.02775574 C1.15005612 106.79554639 -0.89814759 106.91658682 -4.81640625 107.12890625 C-8.02149299 106.93969719 -9.63081678 106.16013764 -12 104 C-13.8125 100.8125 -13.8125 100.8125 -15 98 C-15.51046875 98.47050781 -16.0209375 98.94101562 -16.546875 99.42578125 C-24.06467233 105.86389492 -31.75990291 108.4790053 -41.6875 107.9375 C-51.8970588 106.51869312 -59.15090478 101.63937544 -66 94 C-73.0625489 83.47218179 -74.44074962 71.17352298 -72.5 58.81640625 C-70.39401925 49.42325348 -66.32580653 39.84598764 -58.30078125 34.05078125 C-48.72144618 28.4784883 -41.05982384 25.64936466 -30 28 C-24.10344829 29.81366241 -19.78111476 32.09529902 -15 36 C-14.98541748 35.14768799 -14.97083496 34.29537598 -14.95581055 33.41723633 C-14.89456715 30.23928825 -14.82037971 27.06197454 -14.73754883 23.88452148 C-14.70440194 22.51224042 -14.67633829 21.13982638 -14.65356445 19.76733398 C-14.61983234 17.78862234 -14.5659851 15.81028624 -14.51171875 13.83203125 C-14.48553467 12.64327393 -14.45935059 11.4545166 -14.43237305 10.22973633 C-13.9610609 6.70913309 -13.12461507 4.82080954 -11 2 C-7.31502204 -0.45665197 -4.28028214 -0.70086491 0 0 Z M-49 53 C-52.87166 60.46677285 -53.30828647 69.07721474 -51.49609375 77.28125 C-49.49151363 82.50461306 -45.81781569 85.8018942 -41.25 88.8125 C-35.92424659 90.75844836 -31.26514454 90.72484625 -25.875 89 C-20.76865122 85.44775737 -16.97288263 81.32645846 -14.5625 75.5625 C-13.14331125 66.57430459 -13.94037597 59.09937339 -18.6875 51.1875 C-23.01756362 47.09149387 -27.55489333 44.79730477 -33.5625 44.5 C-39.88245109 44.80510109 -45.12205948 48.01407648 -49 53 Z " fill="#1C2528" transform="translate(605,250)"/>
<path d="M0 0 C1.92578125 1.46484375 1.92578125 1.46484375 3.92578125 4.46484375 C4.48831051 8.72399387 4.34424669 11.4389769 1.73828125 14.83984375 C-1.07421875 17.46484375 -1.07421875 17.46484375 -3.32421875 18.58984375 C-7.69412563 18.39121162 -11.18470911 16.35989238 -15.07421875 14.46484375 C-22.46708598 10.86536577 -28.81876931 9.46562509 -37.07421875 10.46484375 C-41.28593965 11.98977718 -42.59408083 12.74463686 -45.07421875 16.46484375 C-45.57429669 19.9227039 -45.57429669 19.9227039 -45.07421875 23.46484375 C-39.26857914 30.54130308 -29.50738263 32.47647148 -20.94921875 34.46484375 C-9.89625455 37.08491169 -1.52718167 40.70028835 4.92578125 50.46484375 C8.76968157 58.94213233 8.65090423 66.86196689 6.01171875 75.6875 C2.78397048 83.94264037 -2.63484139 88.71657724 -10.640625 92.3046875 C-26.68591329 97.72613303 -43.10068032 95.30049751 -58.30761719 88.37402344 C-63.72648038 85.58521104 -68.01595048 81.98453011 -70.38671875 76.33984375 C-69.96632225 72.47219591 -68.51702958 70.45050143 -66.07421875 67.46484375 C-63.19933182 65.54825246 -61.64702277 64.86909208 -58.2265625 64.94140625 C-54.25882014 65.90633815 -51.11769017 68.45298291 -47.76953125 70.7109375 C-40.76695421 75.26768691 -32.65055402 77.42191689 -24.3203125 75.9921875 C-19.55632493 74.72317771 -16.66168706 73.87971156 -14.07421875 69.46484375 C-13.34488631 65.34114102 -13.34488631 65.34114102 -14.07421875 61.46484375 C-19.32946545 55.39594319 -26.84364909 54.10984324 -34.32421875 52.02734375 C-57.52759343 45.56049355 -57.52759343 45.56049355 -62.63671875 36.71484375 C-63.09175781 35.956875 -63.54679688 35.19890625 -64.015625 34.41796875 C-67.69207636 27.63484816 -67.23301611 17.76430687 -65.23828125 10.36328125 C-61.59782633 2.47155682 -55.79138566 -2.6247266 -47.82421875 -5.91015625 C-31.58010063 -11.85943518 -14.51046971 -8.95326854 0 0 Z " fill="#1A2326" transform="translate(691.07421875,262.53515625)"/>
<path d="M0 0 C18.81 0 37.62 0 57 0 C57.0825 8.848125 57.165 17.69625 57.25 26.8125 C57.28641602 29.58374268 57.32283203 32.35498535 57.36035156 35.21020508 C57.37204804 37.43830595 57.38223759 39.66641546 57.390625 41.89453125 C57.41108887 43.02580444 57.43155273 44.15707764 57.45263672 45.32263184 C57.4566307 54.53774417 56.08195053 63.04370738 49.625 70 C42.75998336 76.13157469 36.03583217 77.15809243 27.109375 77.1328125 C26.36415588 77.13376923 25.61893677 77.13472595 24.85113525 77.13571167 C23.28454503 77.13638946 21.71795195 77.13456327 20.15136719 77.13037109 C17.74407744 77.12498675 15.33697171 77.13034509 12.9296875 77.13671875 C11.40624959 77.13605849 9.88281179 77.13477841 8.359375 77.1328125 C7.63651306 77.13483673 6.91365112 77.13686096 6.16888428 77.13894653 C1.1149722 77.1149722 1.1149722 77.1149722 0 76 C-0.09494733 73.62699131 -0.12559319 71.28321297 -0.11352539 68.90991211 C-0.11367142 68.16849472 -0.11381744 67.42707733 -0.1139679 66.66319275 C-0.11326865 64.20121379 -0.10547574 61.73930957 -0.09765625 59.27734375 C-0.09579211 57.57483461 -0.09436819 55.87232493 -0.09336853 54.16981506 C-0.08954302 49.68006927 -0.07971247 45.19035562 -0.06866455 40.70062256 C-0.05665668 35.31836359 -0.05204835 29.9360939 -0.04621124 24.55382538 C-0.03650072 16.36919454 -0.01734441 8.18463428 0 0 Z " fill="#A8181D" transform="translate(254,323)"/>
<path d="M0 0 C2.43551171 0.04466791 4.87003465 0.0615374 7.3059082 0.07348633 C8.85214658 0.08688877 10.39837275 0.1018057 11.94458008 0.1184082 C12.67363052 0.12579514 13.40268097 0.13318207 14.15382385 0.14079285 C19.22847926 0.23824489 19.22847926 0.23824489 20.34692383 1.35668945 C20.44187116 3.72969815 20.47251702 6.07347648 20.46044922 8.44677734 C20.46059525 9.18819473 20.46074127 9.92961212 20.46089172 10.6934967 C20.46019248 13.15547566 20.45239957 15.61737989 20.44458008 18.0793457 C20.44271594 19.78185484 20.44129202 21.48436452 20.44029236 23.18687439 C20.43646685 27.67662018 20.42663629 32.16633384 20.41558838 36.65606689 C20.40358051 42.03832586 20.39897217 47.42059556 20.39313507 52.80286407 C20.38342455 60.98749492 20.36426824 69.17205518 20.34692383 77.35668945 C1.53692383 77.35668945 -17.27307617 77.35668945 -36.65307617 77.35668945 C-36.73557617 68.50856445 -36.81807617 59.66043945 -36.90307617 50.54418945 C-36.93949219 47.77294678 -36.9759082 45.0017041 -37.01342773 42.14648438 C-37.02512422 39.9183835 -37.03531376 37.69027399 -37.04370117 35.4621582 C-37.06416504 34.33088501 -37.08462891 33.19961182 -37.10571289 32.03405762 C-37.10966272 22.92081614 -35.69757566 14.46517721 -29.52807617 7.41918945 C-20.7925657 -0.22594557 -10.99879239 -0.20182305 0 0 Z " fill="#A7171D" transform="translate(143.653076171875,234.643310546875)"/>
<path d="M0 0 C0 0.66 0 1.32 0 2 C0.598125 2.24878906 1.19625 2.49757813 1.8125 2.75390625 C8.03525026 6.29865149 11.13720367 14.72931183 13.3046875 21.22265625 C14.74093214 26.959566 15.25792207 31.87454547 12.1875 37.0625 C8.96428243 39.91734984 6.39648866 40.12440023 2.25317383 40.11352539 C1.29240433 40.11344986 0.33163483 40.11337433 -0.6582489 40.11329651 C-1.69270645 40.10813522 -2.727164 40.10297394 -3.79296875 40.09765625 C-5.38471672 40.09553383 -5.38471672 40.09553383 -7.00862122 40.09336853 C-10.40160935 40.08776606 -13.79453177 40.07521314 -17.1875 40.0625 C-19.48632717 40.05748532 -21.78515538 40.05292236 -24.08398438 40.04882812 C-29.72267872 40.03779583 -35.36133466 40.0210553 -41 40 C-40.37402813 41.45687046 -39.74291711 42.91153358 -39.10961914 44.36523438 C-38.58326622 45.58067932 -38.58326622 45.58067932 -38.04627991 46.82067871 C-36.05032128 50.97810839 -33.10429974 53.07139093 -29 55 C-21.88634556 56.85710448 -15.59123402 56.18597809 -9 53 C-6.98817543 51.68457624 -4.98600337 50.3540932 -3 49 C0.26663418 47.80488993 1.41011277 47.74719119 4.625 49.125 C7.34712589 51.27404675 8.72105706 52.76502668 10 56 C9.4232007 61.30655354 6.36142125 64.14392093 2.41796875 67.390625 C-7.70563145 74.12878862 -19.72486061 75.20228989 -31.375 72.875 C-43.11200238 69.9441416 -51.17463695 63.6430933 -57.60546875 53.45703125 C-62.85343944 43.03459087 -63.01903328 28.86853751 -59.4375 17.8125 C-54.97067234 7.86719382 -47.60187339 0.27687728 -37.53515625 -4.0625 C-35.36992182 -4.81186566 -33.22224707 -5.44554714 -31 -6 C-30.13375 -6.226875 -29.2675 -6.45375 -28.375 -6.6875 C-18.02093219 -8.04987734 -8.98985389 -4.91897666 0 0 Z M-38.4375 18 C-40.28200781 21.20092727 -40.28200781 21.20092727 -41 26 C-29.45 26 -17.9 26 -6 26 C-7.99623335 18.29135468 -7.99623335 18.29135468 -12.5 13.5 C-13.0878125 13.0359375 -13.675625 12.571875 -14.28125 12.09375 C-23.10275359 6.4800659 -32.44755123 10.62775536 -38.4375 18 Z " fill="#1B2428" transform="translate(959,284)"/>
<path d="M0 0 C7.2280783 5.95931987 11.95198271 14.77871614 13.3125 24 C13.98451045 32.97507287 13.98451045 32.97507287 11.3125 37 C8.25642899 38.90528263 5.92983529 39.24545018 2.36035156 39.22705078 C1.37963684 39.22689972 0.39892212 39.22674866 -0.61151123 39.22659302 C-2.1882663 39.21110916 -2.1882663 39.21110916 -3.796875 39.1953125 C-4.87882141 39.1924826 -5.96076782 39.18965271 -7.07550049 39.18673706 C-10.52961304 39.17554609 -13.98346588 39.1504432 -17.4375 39.125 C-19.77994417 39.11496881 -22.12239241 39.1058432 -24.46484375 39.09765625 C-30.20581771 39.0756103 -35.9466403 39.04214334 -41.6875 39 C-41.22488137 40.29279888 -40.756689 41.58360422 -40.28613281 42.87353516 C-40.02600403 43.59256012 -39.76587524 44.31158508 -39.49786377 45.05239868 C-37.47129684 49.9229822 -33.07927852 52.38440565 -28.4375 54.4375 C-18.72335356 55.89462197 -12.58292988 53.97010576 -4.51171875 48.3984375 C-1.03179516 46.67532181 0.63335643 46.93484934 4.3125 48 C7.76933369 50.27423269 8.24191456 51.67422105 9.125 55.75 C8.90279476 59.7200669 7.32330618 61.53800697 4.5 64.25 C-3.97006876 71.05010252 -14.90274869 73.95004335 -25.6875 73 C-37.73208791 71.18020311 -47.08460345 67.04771768 -54.9296875 57.53515625 C-61.53999038 48.00163054 -63.81959552 37.23251921 -62.2421875 25.76171875 C-59.70917127 14.30491544 -54.00459086 4.22428957 -44.0625 -2.25 C-29.42927463 -10.4209477 -13.70952848 -9.49477479 0 0 Z M-38 15.3125 C-40.18742285 18.51902926 -40.18742285 18.51902926 -41.6875 25 C-30.1375 25 -18.5875 25 -6.6875 25 C-8.69395998 17.24987236 -8.69395998 17.24987236 -13.25 12.5 C-14.14912109 11.80390625 -14.14912109 11.80390625 -15.06640625 11.09375 C-22.93379679 5.78563108 -31.84805937 9.16055937 -38 15.3125 Z " fill="#1C2528" transform="translate(511.6875,285)"/>
<path d="M0 0 C4.98164817 4.18687864 8.82032486 8.3880614 11.6875 14.24609375 C12.00589844 14.88675781 12.32429687 15.52742188 12.65234375 16.1875 C16.41477331 25.32482893 16.05147133 37.80435355 12.71875 47.015625 C8.07162703 57.06678869 0.44336087 65.43714522 -10.01171875 69.5 C-22.52327793 73.55722887 -35.32710272 72.91907249 -47.3125 67.24609375 C-57.34558048 60.97364457 -63.42630157 52.65870394 -66.3125 41.24609375 C-67.994892 29.01485856 -66.73210361 17.56152827 -59.2578125 7.47265625 C-44.27551914 -10.20541308 -19.02245321 -14.42750252 0 0 Z M-42.3125 17.24609375 C-46.67217509 23.62990371 -46.86996905 29.67292926 -46.3125 37.24609375 C-45.08888903 43.71214805 -41.52388797 48.31096406 -36.3125 52.24609375 C-31.05994316 54.80810761 -26.05303465 55.0270641 -20.3125 54.24609375 C-14.01184349 51.77045637 -9.10247676 47.02212247 -6.20703125 40.9140625 C-3.98116396 34.27534042 -4.45608157 27.22830782 -7.3125 20.87109375 C-10.26360178 15.64991368 -14.50643671 11.45307491 -20.3203125 9.609375 C-29.384644 7.95646749 -36.24202481 10.1638727 -42.3125 17.24609375 Z " fill="#1C2529" transform="translate(824.3125,285.75390625)"/>
<path d="M0 0 C2.3125 0.4296875 2.3125 0.4296875 4.875 2.2421875 C7.57921804 6.35730192 7.41913822 9.80612176 7.375 14.6171875 C7.36597656 15.88949219 7.35695313 17.16179687 7.34765625 18.47265625 C7.33605469 19.44847656 7.32445312 20.42429687 7.3125 21.4296875 C8.34890625 21.38328125 9.3853125 21.336875 10.453125 21.2890625 C11.82288779 21.25153475 13.19268182 21.21513566 14.5625 21.1796875 C15.58537109 21.12941406 15.58537109 21.12941406 16.62890625 21.078125 C20.06413549 21.01142152 21.94546514 21.15824693 24.7421875 23.2265625 C26.92193673 26.28471814 27.17962564 28.7092055 27.3125 32.4296875 C26.54072406 35.02566112 25.91805526 36.02162748 23.68359375 37.52734375 C20.40957936 38.7733031 17.55250432 38.61931721 14.0625 38.5546875 C12.16757812 38.52761719 12.16757812 38.52761719 10.234375 38.5 C8.78804687 38.46519531 8.78804687 38.46519531 7.3125 38.4296875 C7.38129874 43.92940564 7.46922648 49.42835777 7.57495117 54.92749023 C7.60822002 56.79849764 7.63624585 58.66960588 7.65893555 60.54077148 C7.69244588 63.22944133 7.74475865 65.91718548 7.80078125 68.60546875 C7.81036613 69.86185905 7.81036613 69.86185905 7.82014465 71.14363098 C7.8053455 75.43905719 7.8053455 75.43905719 9.66593933 79.1537323 C12.10884454 81.04679197 14.20459514 80.76704343 17.25 80.8046875 C22.97025626 81.15744816 22.97025626 81.15744816 26.0625 83.6171875 C27.54569748 86.95438182 27.91431389 88.81880415 27.3125 92.4296875 C24.85032848 96.44211515 22.75605094 98.05822116 18.3125 99.4296875 C15.63954994 99.64452795 13.10636602 99.75465884 10.4375 99.7421875 C9.75558594 99.75830078 9.07367187 99.77441406 8.37109375 99.79101562 C2.17798695 99.79691382 -2.14130835 97.99212328 -7.4375 94.7421875 C-12.45778411 89.58245105 -13.02908197 83.38407509 -13.02738953 76.5098877 C-13.01190567 75.54498413 -12.99642181 74.58008057 -12.98046875 73.5859375 C-12.97622391 72.57623901 -12.97197906 71.56654053 -12.96760559 70.52624512 C-12.95092214 67.32711193 -12.91328903 64.12862767 -12.875 60.9296875 C-12.85993982 58.75000915 -12.84625375 56.57032085 -12.83398438 54.390625 C-12.80105263 49.07009414 -12.75095736 43.7499372 -12.6875 38.4296875 C-13.61949219 38.47609375 -14.55148437 38.5225 -15.51171875 38.5703125 C-18.6875 38.4296875 -18.6875 38.4296875 -21.5 36.1796875 C-24.6875 32.17254464 -24.6875 32.17254464 -24.6875 29.4296875 C-23.12775604 25.53032761 -22.22021727 23.78483235 -18.6875 21.4296875 C-15.5 21.3046875 -15.5 21.3046875 -12.6875 21.4296875 C-12.74550781 20.33269531 -12.80351563 19.23570312 -12.86328125 18.10546875 C-12.91019688 16.65108436 -12.95569511 15.19665376 -13 13.7421875 C-13.0628418 12.6603418 -13.0628418 12.6603418 -13.12695312 11.55664062 C-13.22061688 7.45416827 -13.00605999 5.86121202 -10.484375 2.4453125 C-6.72016273 -0.26744383 -4.49156806 -0.22725196 0 0 Z " fill="#1B2327" transform="translate(726.6875,257.5703125)"/>
<path d="M0 0 C2.8650219 2.6446356 3.87399508 4.13596627 4.4375 8 C3.92917061 11.48568726 3.21990864 13.26211268 1 16 C-1.59449071 17.56876183 -4.10425405 18.71371257 -6.9921875 19.63671875 C-12.03956996 21.28426057 -15.28623117 23.28555165 -18 28 C-22.87402865 37.73041774 -22.51960962 47.54854337 -22.4152832 58.12792969 C-22.40075491 60.31241393 -22.41599289 62.49526174 -22.43359375 64.6796875 C-22.42384521 65.96601074 -22.41409668 67.25233398 -22.40405273 68.57763672 C-23.15070909 72.86548137 -24.67260704 74.29529724 -28 77 C-30.40927511 78.20463755 -31.70611534 78.07893471 -34.375 77.875 C-35.14585937 77.83117187 -35.91671875 77.78734375 -36.7109375 77.7421875 C-40.05094042 76.6592514 -41.08729462 74.90409405 -43 72 C-43.50793457 68.88879395 -43.50793457 68.88879395 -43.51757812 65.36132812 C-43.5245874 64.71514023 -43.53159668 64.06895233 -43.53881836 63.40318298 C-43.55634547 61.27876109 -43.54479636 59.15568414 -43.53125 57.03125 C-43.53394648 55.54821519 -43.53783021 54.0651821 -43.54284668 52.58215332 C-43.5487345 49.47858803 -43.54020256 46.37548418 -43.52148438 43.27197266 C-43.49869444 39.30052204 -43.51182149 35.33015273 -43.53577423 31.35874176 C-43.55025207 28.29770816 -43.5456173 25.23692949 -43.53526306 22.17588806 C-43.53260122 20.71190766 -43.53584644 19.24790386 -43.54518127 17.78395081 C-43.55538065 15.73490399 -43.53980299 13.68759011 -43.51757812 11.63867188 C-43.51439575 10.47460815 -43.51121338 9.31054443 -43.50793457 8.11120605 C-42.89516407 4.35785786 -41.62833957 2.6973329 -39 0 C-35.93570224 -1.53214888 -33.3834358 -1.22938548 -30 -1 C-27.10836386 0.11722305 -25.54290259 1.01885074 -24.02734375 3.7578125 C-23.27968717 5.4756839 -22.63224006 7.23638298 -22 9 C-21.5875 8.45730469 -21.175 7.91460937 -20.75 7.35546875 C-14.96012168 0.18274003 -9.2377145 -4.26356054 0 0 Z " fill="#1D272A" transform="translate(893,279)"/>
<path d="M0 0 C8.04279529 6.44376027 14.58930971 16.57249872 16.12158203 26.88427734 C16.20408203 27.85365234 16.28658203 28.82302734 16.37158203 29.82177734 C14.0188761 30.99813031 12.55083003 30.95537093 9.93408203 30.94677734 C8.76039063 30.95064453 8.76039063 30.95064453 7.56298828 30.95458984 C5.37158203 30.82177734 5.37158203 30.82177734 2.37158203 29.82177734 C1.12548828 27.27490234 1.12548828 27.27490234 -0.06591797 24.07177734 C-2.4553047 17.66853633 -5.28021107 13.37443102 -11.06591797 9.63427734 C-11.80712891 9.14572266 -12.54833984 8.65716797 -13.31201172 8.15380859 C-21.02118809 3.72070717 -30.25392989 2.5898126 -38.87841797 4.88427734 C-49.22441573 8.6296629 -55.12240279 14.61314799 -59.88232422 24.39990234 C-60.83992388 26.52196988 -61.74026688 28.66971894 -62.62841797 30.82177734 C-66.58841797 30.82177734 -70.54841797 30.82177734 -74.62841797 30.82177734 C-76.27634637 24.23006375 -74.07620887 19.36684135 -70.77294922 13.56005859 C-62.83091121 1.08723034 -52.93641127 -6.20617828 -38.50341797 -9.42822266 C-24.60326991 -11.8531706 -11.46577503 -8.29592658 0 0 Z " fill="#A4181E" transform="translate(238.62841796875,199.17822265625)"/>
<path d="M0 0 C45.21 0 90.42 0 137 0 C137 25.41 137 50.82 137 77 C113.9 77 90.8 77 67 77 C67 59.18 67 41.36 67 23 C52.81 23 38.62 23 24 23 C24.12375 26.8775 24.2475 30.755 24.375 34.75 C24.40899902 35.96655273 24.44299805 37.18310547 24.47802734 38.43652344 C24.53144287 39.88333496 24.53144287 39.88333496 24.5859375 41.359375 C24.63306885 42.83615723 24.63306885 42.83615723 24.68115234 44.34277344 C25.00501299 47.0417775 25.5368138 48.72364368 27 51 C29.73233158 52.36616579 32.01190444 52.19821243 35.06640625 52.28125 C36.8772168 52.33732422 36.8772168 52.33732422 38.72460938 52.39453125 C41.28710643 52.46495102 43.84960644 52.53526319 46.41210938 52.60546875 C47.61802734 52.64285156 48.82394531 52.68023437 50.06640625 52.71875 C51.17959229 52.74904297 52.29277832 52.77933594 53.43969727 52.81054688 C56 53 56 53 57 54 C57.0991657 55.62257544 57.13079777 57.24939831 57.1328125 58.875 C57.13474609 60.35226562 57.13474609 60.35226562 57.13671875 61.859375 C57.13285156 62.89578125 57.12898438 63.9321875 57.125 65 C57.13080078 66.55460937 57.13080078 66.55460937 57.13671875 68.140625 C57.13542969 69.12546875 57.13414062 70.1103125 57.1328125 71.125 C57.13168457 72.03507812 57.13055664 72.94515625 57.12939453 73.8828125 C57 76 57 76 56 77 C53.53490152 77.13843504 51.09993145 77.21317572 48.6328125 77.23828125 C47.88345428 77.246353 47.13409607 77.25442474 46.36203003 77.26274109 C44.76644212 77.27660938 43.1708242 77.28731919 41.57519531 77.29516602 C39.16931597 77.31218649 36.7648817 77.35601864 34.359375 77.40039062 C15.24530479 77.59579238 15.24530479 77.59579238 8.0480957 71.28979492 C-8.76310946 53.21132024 0 18.81906572 0 0 Z M2 1 C-1.83756846 35.69303948 -1.83756846 35.69303948 7.125 68.25 C15.8818585 76.62612552 26.21910023 75.48459182 37.5625 75.25 C39.25583826 75.22990488 40.94919953 75.21165943 42.64257812 75.1953125 C46.76275873 75.15497789 50.87970123 75.07665672 55 75 C55 68.4 55 61.8 55 55 C53.25332031 54.96261719 51.50664062 54.92523438 49.70703125 54.88671875 C47.40883281 54.82105594 45.11065668 54.75460871 42.8125 54.6875 C41.66201172 54.66494141 40.51152344 54.64238281 39.32617188 54.61914062 C37.65844727 54.5659668 37.65844727 54.5659668 35.95703125 54.51171875 C34.93585205 54.48553467 33.91467285 54.45935059 32.86254883 54.43237305 C29.54064144 53.93061629 27.66492465 53.032413 25 51 C22.77645588 47.86215591 22.76447575 45.13927911 22.8046875 41.359375 C22.80968262 40.39483398 22.81467773 39.43029297 22.81982422 38.43652344 C22.83803223 37.2199707 22.85624023 36.00341797 22.875 34.75 C22.936875 28.93375 22.936875 28.93375 23 23 C45.77 22.505 45.77 22.505 69 22 C69 39.49 69 56.98 69 75 C90.78 75 112.56 75 135 75 C135 50.58 135 26.16 135 1 C91.11 1 47.22 1 2 1 Z " fill="#80080E" transform="translate(107,323)"/>
<path d="M0 0 C23.1 0 46.2 0 70 0 C70 17.82 70 35.64 70 54 C69.01 54.495 69.01 54.495 68 55 C68 37.51 68 20.02 68 2 C46.22 2 24.44 2 2 2 C2 26.42 2 50.84 2 76 C45.89 76 89.78 76 135 76 C134.67 56.86 134.34 37.72 134 18 C134.66 18.33 135.32 18.66 136 19 C142.11464544 37.34393633 137 57.66379332 137 77 C91.79 77 46.58 77 0 77 C0 51.59 0 26.18 0 0 Z " fill="#7E0607" transform="translate(174,235)"/>
<path d="M0 0 C18.81 0 37.62 0 57 0 C57.0825 8.848125 57.165 17.69625 57.25 26.8125 C57.28641602 29.58374268 57.32283203 32.35498535 57.36035156 35.21020508 C57.37204804 37.43830595 57.38223759 39.66641546 57.390625 41.89453125 C57.41108887 43.02580444 57.43155273 44.15707764 57.45263672 45.32263184 C57.45667252 54.63423026 56.01300458 63.06185658 49.5625 70.125 C46.85806673 72.56714987 44.75834424 73.88611078 41 74 C41.721875 73.46375 42.44375 72.9275 43.1875 72.375 C49.46781667 67.07162147 53.42422566 61.48776988 54.29769897 53.16259766 C54.44134865 49.83505541 54.49339995 46.51808622 54.51171875 43.1875 C54.52966995 41.97803711 54.54762115 40.76857422 54.56611633 39.52246094 C54.62004513 35.68167546 54.65406014 31.84101305 54.6875 28 C54.72068834 25.38670169 54.75517939 22.77341959 54.79101562 20.16015625 C54.87819962 13.77342146 54.93842091 7.38723771 55 1 C37.51 1 20.02 1 2 1 C2 25.42 2 49.84 2 75 C14.54 74.67 27.08 74.34 40 74 C40 74.66 40 75.32 40 76 C35.69674111 77.05435078 31.5132416 77.14528435 27.109375 77.1328125 C26.36415588 77.13376923 25.61893677 77.13472595 24.85113525 77.13571167 C23.28454503 77.13638946 21.71795195 77.13456327 20.15136719 77.13037109 C17.74407744 77.12498675 15.33697171 77.13034509 12.9296875 77.13671875 C11.40624959 77.13605849 9.88281179 77.13477841 8.359375 77.1328125 C7.63651306 77.13483673 6.91365112 77.13686096 6.16888428 77.13894653 C1.1149722 77.1149722 1.1149722 77.1149722 0 76 C-0.09494733 73.62699131 -0.12559319 71.28321297 -0.11352539 68.90991211 C-0.11367142 68.16849472 -0.11381744 67.42707733 -0.1139679 66.66319275 C-0.11326865 64.20121379 -0.10547574 61.73930957 -0.09765625 59.27734375 C-0.09579211 57.57483461 -0.09436819 55.87232493 -0.09336853 54.16981506 C-0.08954302 49.68006927 -0.07971247 45.19035562 -0.06866455 40.70062256 C-0.05665668 35.31836359 -0.05204835 29.9360939 -0.04621124 24.55382538 C-0.03650072 16.36919454 -0.01734441 8.18463428 0 0 Z " fill="#810204" transform="translate(254,323)"/>
<path d="M0 0 C2.43551171 0.04466791 4.87003465 0.0615374 7.3059082 0.07348633 C8.85214658 0.08688877 10.39837275 0.1018057 11.94458008 0.1184082 C12.67363052 0.12579514 13.40268097 0.13318207 14.15382385 0.14079285 C19.22847926 0.23824489 19.22847926 0.23824489 20.34692383 1.35668945 C20.44187116 3.72969815 20.47251702 6.07347648 20.46044922 8.44677734 C20.46059525 9.18819473 20.46074127 9.92961212 20.46089172 10.6934967 C20.46019248 13.15547566 20.45239957 15.61737989 20.44458008 18.0793457 C20.44271594 19.78185484 20.44129202 21.48436452 20.44029236 23.18687439 C20.43646685 27.67662018 20.42663629 32.16633384 20.41558838 36.65606689 C20.40358051 42.03832586 20.39897217 47.42059556 20.39313507 52.80286407 C20.38342455 60.98749492 20.36426824 69.17205518 20.34692383 77.35668945 C1.53692383 77.35668945 -17.27307617 77.35668945 -36.65307617 77.35668945 C-36.73557617 68.50856445 -36.81807617 59.66043945 -36.90307617 50.54418945 C-36.93949219 47.77294678 -36.9759082 45.0017041 -37.01342773 42.14648438 C-37.02512422 39.9183835 -37.03531376 37.69027399 -37.04370117 35.4621582 C-37.06416504 34.33088501 -37.08462891 33.19961182 -37.10571289 32.03405762 C-37.10966272 22.92081614 -35.69757566 14.46517721 -29.52807617 7.41918945 C-20.7925657 -0.22594557 -10.99879239 -0.20182305 0 0 Z M-27.89526367 8.28637695 C-28.70350586 9.24930664 -28.70350586 9.24930664 -29.52807617 10.23168945 C-30.35952148 11.18688477 -30.35952148 11.18688477 -31.20776367 12.16137695 C-34.11388831 16.57554465 -34.90371785 20.96487813 -34.88012695 26.1784668 C-34.87997589 27.29917572 -34.87982483 28.41988464 -34.87966919 29.57455444 C-34.86934662 30.76851837 -34.85902405 31.9624823 -34.84838867 33.19262695 C-34.84555878 34.42711578 -34.84272888 35.66160461 -34.83981323 36.9335022 C-34.8286414 40.86633095 -34.80354181 44.79892983 -34.77807617 48.73168945 C-34.76691442 51.40225904 -34.75891736 54.07282647 -34.75073242 56.7434082 C-34.7304157 63.28132788 -34.6912601 69.81875212 -34.65307617 76.35668945 C-17.16307617 76.35668945 0.32692383 76.35668945 18.34692383 76.35668945 C18.34692383 51.93668945 18.34692383 27.51668945 18.34692383 2.35668945 C-7.42479404 -0.50105996 -7.42479404 -0.50105996 -27.89526367 8.28637695 Z " fill="#810308" transform="translate(143.653076171875,234.643310546875)"/>
<path d="M0 0 C0.6568277 -0.00095673 1.3136554 -0.00191345 1.99038696 -0.00289917 C3.3702199 -0.00357489 4.75005612 -0.00176341 6.12988281 0.00244141 C8.21426733 0.007781 10.29843471 0.00248453 12.3828125 -0.00390625 C27.5130567 -0.01339619 39.40436794 0.72005994 50.7109375 11.7421875 C57.42144885 19.23640821 57.60170778 27.17153238 57.24609375 36.86328125 C56.90075786 41.90080001 55.5728875 45.88244871 52.8515625 50.1328125 C52.42875 50.94492187 52.0059375 51.75703125 51.5703125 52.59375 C49.48715705 55.67113873 47.20888392 57.33184822 44.1640625 59.4453125 C43.17019531 60.14269531 42.17632812 60.84007812 41.15234375 61.55859375 C40.39308594 62.07808594 39.63382812 62.59757812 38.8515625 63.1328125 C39.18365723 63.60066162 39.51575195 64.06851074 39.85791016 64.55053711 C43.04717036 69.04680769 46.22223769 73.55276787 49.38964844 78.06445312 C50.57290407 79.73855829 51.77569726 81.39884326 52.984375 83.0546875 C55.28861459 86.28284924 56.73133269 88.43815138 57.4140625 92.3828125 C56.61094553 96.30916215 55.34878912 99.00989254 52.1015625 101.4453125 C48.30445286 102.60554045 44.55521359 102.78916392 40.81738281 101.34912109 C38.55722317 99.95069644 37.43168533 98.58587612 35.8984375 96.421875 C35.09829224 95.30401611 35.09829224 95.30401611 34.28198242 94.16357422 C33.72744385 93.36967285 33.17290527 92.57577148 32.6015625 91.7578125 C32.02962158 90.95230957 31.45768066 90.14680664 30.8684082 89.31689453 C26.40604284 83.00428012 22.06031708 76.61760052 17.8515625 70.1328125 C18.1815625 69.4728125 18.5115625 68.8128125 18.8515625 68.1328125 C19.20347656 68.62048096 19.55539062 69.10814941 19.91796875 69.6105957 C23.34540417 74.35967439 26.77482646 79.1073119 30.20556641 83.85400391 C31.61394396 85.80384017 33.02031823 87.75509415 34.42578125 89.70703125 C35.12316406 90.67253906 35.82054687 91.63804687 36.5390625 92.6328125 C37.14105469 93.468125 37.74304688 94.3034375 38.36328125 95.1640625 C40.17497901 97.56063906 41.26745731 98.94337298 44.1640625 99.8828125 C47.35020611 100.17919795 49.02644749 99.58354724 51.8515625 98.1328125 C54.20965485 96.17496547 54.20965485 96.17496547 54.359375 92.56640625 C54.21028409 86.96538933 51.08267126 83.44516762 47.7265625 79.1953125 C46.57647793 77.68745276 45.42803632 76.17833846 44.28125 74.66796875 C43.7150293 73.93078613 43.14880859 73.19360352 42.56542969 72.43408203 C39.83749533 68.77118897 37.33697175 64.96292676 34.8515625 61.1328125 C36.3365625 60.606875 36.3365625 60.606875 37.8515625 60.0703125 C45.33706463 56.80584403 50.16867361 51.7985813 53.16015625 44.24609375 C56.49342479 34.05796789 55.08556278 24.90881308 50.5390625 15.3828125 C45.47979602 8.63712386 38.44389705 5.28931453 30.28857422 3.6027832 C25.94917603 3.00942182 21.67185211 2.90085063 17.296875 2.81640625 C15.94455276 2.7852346 15.94455276 2.7852346 14.56491089 2.75343323 C11.7022011 2.6883667 8.83940431 2.62925336 5.9765625 2.5703125 C4.02863706 2.52708643 2.08072021 2.48347086 0.1328125 2.43945312 C-4.62751639 2.33272961 -9.38793226 2.23134286 -14.1484375 2.1328125 C-14.1484375 1.8028125 -14.1484375 1.4728125 -14.1484375 1.1328125 C-9.38683673 0.36599146 -4.82112411 0.00451356 0 0 Z " fill="#040609" transform="translate(385.1484375,254.8671875)"/>
<path d="M0 0 C3.92657825 0.83062232 6.45730056 1.49904667 9.4375 4.25 C11.31461891 7.55372929 11.54629359 9.2539868 11 13 C9.04009648 17.68199174 6.60433712 19.08876572 2 21 C1.34257813 21.21011719 0.68515625 21.42023438 0.0078125 21.63671875 C-5.03956996 23.28426057 -8.28623117 25.28555165 -11 30 C-15.87402865 39.73041774 -15.51960962 49.54854337 -15.4152832 60.12792969 C-15.40075491 62.31241393 -15.41599289 64.49526174 -15.43359375 66.6796875 C-15.42384521 67.96601074 -15.41409668 69.25233398 -15.40405273 70.57763672 C-16.15070909 74.86548137 -17.67260704 76.29529724 -21 79 C-23.40927511 80.20463755 -24.70611534 80.07893471 -27.375 79.875 C-28.14585937 79.83117187 -28.91671875 79.78734375 -29.7109375 79.7421875 C-33.05094042 78.6592514 -34.08729462 76.90409405 -36 74 C-36.50793457 70.88879395 -36.50793457 70.88879395 -36.51757812 67.36132812 C-36.5245874 66.71514023 -36.53159668 66.06895233 -36.53881836 65.40318298 C-36.55634547 63.27876109 -36.54479636 61.15568414 -36.53125 59.03125 C-36.53394648 57.54821519 -36.53783021 56.0651821 -36.54284668 54.58215332 C-36.5487345 51.47858803 -36.54020256 48.37548418 -36.52148438 45.27197266 C-36.49869444 41.30052204 -36.51182149 37.33015273 -36.53577423 33.35874176 C-36.55025207 30.29770816 -36.5456173 27.23692949 -36.53526306 24.17588806 C-36.53260122 22.71190766 -36.53584644 21.24790386 -36.54518127 19.78395081 C-36.55538065 17.73490399 -36.53980299 15.68759011 -36.51757812 13.63867188 C-36.51439575 12.47460815 -36.51121338 11.31054443 -36.50793457 10.11120605 C-35.89516407 6.35785786 -34.62833957 4.6973329 -32 2 C-28.93570224 0.46785112 -26.3834358 0.77061452 -23 1 C-20.10836386 2.11722305 -18.54290259 3.01885074 -17.02734375 5.7578125 C-16.27968717 7.4756839 -15.63224006 9.23638298 -15 11 C-14.32904297 10.16855469 -14.32904297 10.16855469 -13.64453125 9.3203125 C-7.6397188 2.12478032 -7.6397188 2.12478032 -3 1 C-3 1.66 -3 2.32 -3 3 C-3.9075 3.598125 -4.815 4.19625 -5.75 4.8125 C-9.69220307 7.46590592 -11.92430257 10.46919981 -14.625 14.3125 C-15.07875 14.869375 -15.5325 15.42625 -16 16 C-16.66 16 -17.32 16 -18 16 C-18.03738281 15.38511719 -18.07476563 14.77023437 -18.11328125 14.13671875 C-18.21189453 12.92435547 -18.21189453 12.92435547 -18.3125 11.6875 C-18.37050781 10.88699219 -18.42851563 10.08648437 -18.48828125 9.26171875 C-19.10318366 6.54394399 -19.71915125 5.58844824 -22 4 C-24.28330101 3.63853543 -24.28330101 3.63853543 -26.6875 3.8125 C-27.89986328 3.85310547 -27.89986328 3.85310547 -29.13671875 3.89453125 C-29.75160156 3.92933594 -30.36648438 3.96414063 -31 4 C-33.40944212 8.26242631 -34.37522966 11.31397061 -34.37231445 16.20141602 C-34.37854324 17.40609024 -34.38477203 18.61076447 -34.39118958 19.85194397 C-34.38197983 21.13959152 -34.37277008 22.42723907 -34.36328125 23.75390625 C-34.36276193 25.10098775 -34.3632824 26.44807001 -34.36479187 27.79515076 C-34.36470244 30.61021323 -34.35433184 33.42498758 -34.33618164 36.23999023 C-34.31347342 39.84010902 -34.3129574 43.43980824 -34.31969929 47.03997898 C-34.32304737 49.81873779 -34.31639378 52.59740172 -34.30657005 55.3761425 C-34.30087514 57.34642122 -34.30215069 59.31671611 -34.30354309 61.28700256 C-34.29401108 62.48852463 -34.28447906 63.69004669 -34.2746582 64.92797852 C-34.27005081 65.98243668 -34.26544342 67.03689484 -34.26069641 68.12330627 C-33.98767595 71.13599154 -33.36611789 73.30804987 -32 76 C-28.88450128 77.55774936 -25.3955612 77.56480622 -22 77 C-20.28114488 75.90771597 -20.28114488 75.90771597 -19 74 C-18.52502759 71.06669179 -18.52502759 71.06669179 -18.55859375 67.71484375 C-18.53216797 66.46123047 -18.50574219 65.20761719 -18.47851562 63.91601562 C-18.46498047 62.60310547 -18.45144531 61.29019531 -18.4375 59.9375 C-18.08937791 34.21514525 -18.08937791 34.21514525 -10.60546875 25.34765625 C-6.21785479 21.15220057 -1.11061943 19.17516852 4.5234375 17.078125 C7.14037826 16.25389589 7.14037826 16.25389589 8 14 C8.47559821 9.01040252 8.47559821 9.01040252 6.375 4.625 C3.56154387 2.7000037 1.3666837 2.30606215 -2 2 C-1.34 1.34 -0.68 0.68 0 0 Z " fill="#070C0E" transform="translate(886,277)"/>
<path d="M0 0 C1.08429291 0.00303635 1.08429291 0.00303635 2.19049072 0.00613403 C3.30257904 0.00469894 3.30257904 0.00469894 4.43713379 0.00323486 C6.01084477 0.00255282 7.58455855 0.00440881 9.15826416 0.00857544 C11.55709249 0.01389328 13.95573099 0.00864703 16.35455322 0.00222778 C17.88319947 0.00288915 19.41184559 0.00417153 20.94049072 0.00613403 C22.01263824 0.00309769 22.01263824 0.00309769 23.10644531 0 C26.80675435 0.01722635 30.23283166 0.25732316 33.83111572 1.13894653 C33.83111572 1.79894653 33.83111572 2.45894653 33.83111572 3.13894653 C21.29111572 2.80894653 8.75111572 2.47894653 -4.16888428 2.13894653 C-4.16888428 8.73894653 -4.16888428 15.33894653 -4.16888428 22.13894653 C-2.41060303 22.11574341 -0.65232178 22.09254028 1.15924072 22.06863403 C3.46652815 22.0498756 5.77382016 22.03167548 8.08111572 22.01394653 C9.8194165 21.98880981 9.8194165 21.98880981 11.59283447 21.96316528 C12.70787354 21.95671997 13.8229126 21.95027466 14.97174072 21.94363403 C16.51136475 21.92792358 16.51136475 21.92792358 18.08209229 21.91189575 C20.97695888 22.15099219 22.47581756 22.45740257 24.83111572 24.13894653 C27.727629 27.88403652 28.19317006 30.63993645 28.12408447 35.31472778 C28.11284546 36.87960937 28.11284546 36.87960937 28.10137939 38.47610474 C28.07406738 39.78796753 28.04675537 41.09983032 28.01861572 42.45144653 C27.95674072 46.63832153 27.89486572 50.82519653 27.83111572 55.13894653 C13.31111572 55.13894653 -1.20888428 55.13894653 -16.16888428 55.13894653 C-16.16888428 54.80894653 -16.16888428 54.47894653 -16.16888428 54.13894653 C-2.30888428 53.80894653 11.55111572 53.47894653 25.83111572 53.13894653 C25.72799072 49.07582153 25.62486572 45.01269653 25.51861572 40.82644653 C25.4937207 39.54858276 25.46882568 38.27071899 25.44317627 36.95413208 C25.41006348 35.94648804 25.37695068 34.93884399 25.34283447 33.90066528 C25.31665039 32.86901245 25.29046631 31.83735962 25.26348877 30.77444458 C25.00728061 28.16395098 25.00728061 28.16395098 23.70025635 26.31082153 C20.94528898 24.58356927 18.64551896 24.70035837 15.41314697 24.62722778 C14.15953369 24.59177856 12.90592041 24.55632935 11.61431885 24.51980591 C10.30398682 24.49724731 8.99365479 24.47468872 7.64361572 24.45144653 C6.30829559 24.41826987 4.97300741 24.38377987 3.63775635 24.34793091 C0.36896068 24.26532596 -2.89956239 24.19621424 -6.16888428 24.13894653 C-6.19775664 20.32646227 -6.21563919 16.51400583 -6.23138428 12.70144653 C-6.23976318 11.61283325 -6.24814209 10.52421997 -6.2567749 9.40261841 C-6.25999756 8.36814575 -6.26322021 7.3336731 -6.26654053 6.26785278 C-6.27177734 5.30951538 -6.27701416 4.35117798 -6.28240967 3.36380005 C-6.06484141 -0.90006989 -3.70110203 0.01755698 0 0 Z " fill="#8A0509" transform="translate(260.16888427734375,234.86105346679688)"/>
<path d="M0 0 C1.49789402 2.99578804 1.00082655 5.64407419 0.87890625 8.9765625 C0.84348976 10.00443375 0.84348976 10.00443375 0.80735779 11.05307007 C0.73072143 13.24392416 0.64669754 15.43442472 0.5625 17.625 C0.50927924 19.10935764 0.45653884 20.59373259 0.40429688 22.078125 C0.2751067 25.71896737 0.13928926 29.35952844 0 33 C-2.74554117 31.65198809 -5.26910856 30.19904764 -7.8125 28.5 C-15.60936924 23.6412892 -23.9025952 22.67301659 -32.8359375 24.6171875 C-41.16258748 27.25279379 -48.26464861 32.12053393 -52.375 40 C-52.95677065 41.31632954 -53.49058227 42.65401555 -54 44 C-54.77923828 45.80017578 -54.77923828 45.80017578 -55.57421875 47.63671875 C-57.33228529 52.36904854 -57.49780002 56.80281258 -57.4375 61.8125 C-57.42992676 62.69325195 -57.42235352 63.57400391 -57.41455078 64.48144531 C-57.1512804 74.90080301 -54.2399746 83.34132807 -47 91 C-38.71534792 98.79612222 -28.78776911 99.33123084 -17.9296875 99.10546875 C-16.96289062 99.07066406 -15.99609375 99.03585937 -15 99 C-18.30504146 102.30504146 -22.48158314 101.93662809 -27 102 C-36.67785014 101.20456026 -44.81196622 97.09424843 -51.43359375 90.01171875 C-59.25687117 79.96436745 -60.92840355 68.40289119 -60 56 C-58.43126113 46.01154548 -54.72133753 37.58243415 -48 30 C-39.06407431 23.54699433 -30.57403063 19.99808395 -19.5546875 21.45703125 C-12.65371337 22.92375205 -7.43505497 25.5612309 -2 30 C-1.96241577 28.69011108 -1.96241577 28.69011108 -1.92407227 27.35375977 C-1.82912291 24.12397448 -1.72987971 20.89435846 -1.62768555 17.66479492 C-1.58428566 16.26510801 -1.54261436 14.86536641 -1.50268555 13.46557617 C-1.44510555 11.45738505 -1.38086 9.44938851 -1.31640625 7.44140625 C-1.27974854 6.23170166 -1.24309082 5.02199707 -1.20532227 3.77563477 C-1 1 -1 1 0 0 Z " fill="#06080B" transform="translate(592,256)"/>
<path d="M0 0 C5.7940245 2.24120508 8.18809005 7.77011918 11 13 C13.77303085 19.53504473 15.7226259 27.22561554 13.23046875 34.1328125 C11.70311715 36.45050795 10.56283428 36.96975869 8 38 C5.65875244 38.24050903 5.65875244 38.24050903 3.04785156 38.22705078 C2.06713684 38.22689972 1.08642212 38.22674866 0.07598877 38.22659302 C-1.5007663 38.21110916 -1.5007663 38.21110916 -3.109375 38.1953125 C-4.19132141 38.1924826 -5.27326782 38.18965271 -6.38800049 38.18673706 C-9.84211304 38.17554609 -13.29596588 38.1504432 -16.75 38.125 C-19.09244417 38.11496881 -21.43489241 38.1058432 -23.77734375 38.09765625 C-29.51831771 38.0756103 -35.2591403 38.04214334 -41 38 C-40.53738137 39.29279888 -40.069189 40.58360422 -39.59863281 41.87353516 C-39.33850403 42.59256012 -39.07837524 43.31158508 -38.81036377 44.05239868 C-36.78379684 48.9229822 -32.39177852 51.38440565 -27.75 53.4375 C-17.98571217 54.90214317 -11.79629504 52.90136523 -3.62890625 47.3984375 C-1 46 -1 46 1.34765625 46.2890625 C1.89292969 46.52367187 2.43820312 46.75828125 3 47 C2.484375 47.2475 1.96875 47.495 1.4375 47.75 C-0.51250352 48.75000181 -2.42085487 49.83106606 -4.3125 50.9375 C-12.10916227 55.32929077 -17.90181124 57.12368068 -27 56 C-29.92036442 54.9918353 -32.38736568 53.62695864 -35 52 C-36.02673828 51.57267578 -36.02673828 51.57267578 -37.07421875 51.13671875 C-39.55913116 49.66996518 -40.16988745 48.31242073 -41.3125 45.6875 C-41.65925781 44.92824219 -42.00601562 44.16898437 -42.36328125 43.38671875 C-43.115933 40.56542905 -42.64552005 38.81126756 -42 36 C-41.36550934 35.99191315 -40.73101868 35.98382629 -40.07730103 35.97549438 C-33.49142936 35.88963817 -26.90586529 35.79014361 -20.3203125 35.68261719 C-17.86040398 35.64426238 -15.40043813 35.60942116 -12.94042969 35.578125 C-9.41059837 35.53261549 -5.88116405 35.47459802 -2.3515625 35.4140625 C-1.24632233 35.40251129 -0.14108215 35.39096008 0.99765015 35.37905884 C2.01855743 35.35918915 3.03946472 35.33931946 4.09130859 35.31884766 C4.99287689 35.30552399 5.89444519 35.29220032 6.82333374 35.2784729 C9.20898001 35.19879158 9.20898001 35.19879158 11 33 C12.12297545 24.86495693 10.84614934 17.23785451 7 10 C5.24518032 7.69656432 3.42648373 5.61583755 1.390625 3.55859375 C0 2 0 2 0 0 Z " fill="#080B0E" transform="translate(511,286)"/>
<path d="M0 0 C4.00178342 -0.07468157 8.00329167 -0.12885021 12.00561523 -0.16479492 C13.36441117 -0.17979409 14.72315941 -0.20020038 16.08178711 -0.22631836 C32.00023075 -0.52446034 32.00023075 -0.52446034 37.7421875 4.53515625 C42.0051239 10.2827705 42.73571695 13.88806947 42 21 C40.9177798 24.66024795 39.3375505 27.09217317 36.1640625 29.24609375 C34.13294213 30.30834636 32.14604701 31.19427772 30 32 C29.16855469 32.37125 28.33710938 32.7425 27.48046875 33.125 C22.34085036 34.41711506 17.44703304 33.98999633 12.1875 33.6875 C11.12595703 33.63916016 10.06441406 33.59082031 8.97070312 33.54101562 C1.14549992 33.14549992 1.14549992 33.14549992 0 32 C-0.0883967 29.6243148 -0.11530305 27.27791326 -0.09765625 24.90234375 C-0.0962413 24.19348526 -0.09482635 23.48462677 -0.09336853 22.75428772 C-0.08775443 20.48198288 -0.07519963 18.20977525 -0.0625 15.9375 C-0.05748681 14.40039204 -0.05292359 12.86328255 -0.04882812 11.32617188 C-0.03778042 7.55074358 -0.02050641 3.77538829 0 0 Z M1 2 C1 11.57 1 21.14 1 31 C6.6615625 31.061875 6.6615625 31.061875 12.4375 31.125 C13.60853271 31.14320801 14.77956543 31.16141602 15.98608398 31.18017578 C27.63407209 31.3876926 27.63407209 31.3876926 37.5625 26.125 C40.67649321 21.97590849 40.78691288 17.8748388 40.52734375 12.81640625 C39.71819532 8.49495427 38.31397629 6.86207043 35 4 C31.40559775 1.64919224 28.27842014 1.76882695 24.046875 1.8046875 C23.05654266 1.80893234 23.05654266 1.80893234 22.04620361 1.81326294 C19.94728103 1.82441585 17.84879258 1.84951054 15.75 1.875 C14.32292285 1.88503616 12.89583898 1.8941609 11.46875 1.90234375 C7.97886677 1.92263377 4.48991662 1.96178923 1 2 Z " fill="#03090C" transform="translate(381,272)"/>
<path d="M0 0 C0.33 0 0.66 0 1 0 C0.96519531 1.32451172 0.96519531 1.32451172 0.9296875 2.67578125 C0.72412423 16.34573875 1.89353308 27.97160074 11.28125 38.4609375 C14.16557994 41.04372385 17.4576332 42.51603553 21 44 C21.66 44.33 22.32 44.66 23 45 C32.63554577 49.34500078 43.70860391 49.51436889 53.67578125 46.0546875 C58.96972035 43.65239581 63.75016255 40.87475617 67 36 C66.67972144 32.23672696 65.88649506 29.26992478 64 26 C66.5 27.5 66.5 27.5 69 30 C70.10534093 34.73717543 70.10534093 34.73717543 69 38 C63.14723393 45.71056532 54.91308206 48.60868657 45.8125 50.75 C33.57119981 51.83811557 21.86658318 49.7040444 12 42 C3.35245916 34.32682996 -0.86734894 25.14298068 -1.9375 13.6875 C-2.14936308 8.65296423 -1.88881653 4.66648789 0 0 Z " fill="#05070A" transform="translate(451,307)"/>
<path d="M0 0 C5.2986796 1.26159038 8.8706586 3.56969644 12 8 C15.71465683 15.6127535 17.22667683 22.25849977 14.8125 30.5 C12.46660015 36.90485215 9.31243687 42.12015094 3.01171875 45.27734375 C-3.48036753 47.60945241 -9.56632042 47.52043306 -15.96484375 45.00390625 C-22.34282702 41.85776095 -25.50619439 37.43273959 -28 31 C-30.22265807 23.53716795 -29.24234022 16.96502714 -26 10 C-24.39453125 8.2734375 -24.39453125 8.2734375 -23 7 C-23.2165625 7.59425781 -23.433125 8.18851562 -23.65625 8.80078125 C-26.48751627 17.22904149 -27.69698838 25.8299135 -24.046875 34.21484375 C-21.12054654 39.20488892 -17.48885084 42.20290958 -12 44 C-5.33374099 44.94662871 -0.15431209 44.42005274 5.34765625 40.42578125 C9.91461772 36.48502254 12.56440184 32.24176736 13.37109375 26.23828125 C13.54018135 18.78848064 12.53169843 13.06020479 8 7 C5.94760744 5.13729252 3.89365125 3.57201274 1.57421875 2.05859375 C0.79498047 1.53458984 0.79498047 1.53458984 0 1 C0 0.67 0 0.34 0 0 Z " fill="#080C0E" transform="translate(805,295)"/>
<path d="M0 0 C8.10939727 7.42043734 13.8677976 17.55794993 14.8046875 28.56640625 C12.45198157 29.74275922 10.9839355 29.69999984 8.3671875 29.69140625 C7.19349609 29.69527344 7.19349609 29.69527344 5.99609375 29.69921875 C3.8046875 29.56640625 3.8046875 29.56640625 0.8046875 28.56640625 C-0.44140625 26.01953125 -0.44140625 26.01953125 -1.6328125 22.81640625 C-3.44313737 17.96497459 -5.32450978 13.00180761 -10.1953125 10.56640625 C-10.1953125 9.90640625 -10.1953125 9.24640625 -10.1953125 8.56640625 C-4.69778122 10.7460442 -2.15640871 15.68842911 0.8046875 20.56640625 C2.2421875 24.19140625 2.2421875 24.19140625 2.8046875 26.56640625 C6.1046875 26.89640625 9.4046875 27.22640625 12.8046875 27.56640625 C7.93895552 13.63663372 2.25993113 2.87593891 -11.1328125 -4.24609375 C-21.67458106 -9.07972518 -31.80394119 -8.65478543 -43.1953125 -8.43359375 C-42.8653125 -9.09359375 -42.5353125 -9.75359375 -42.1953125 -10.43359375 C-27.04052217 -13.5264081 -12.0945724 -9.68997994 0 0 Z " fill="#75070A" transform="translate(240.1953125,200.43359375)"/>
<path d="M0 0 C0.66 0.33 1.32 0.66 2 1 C3.44540951 5.33622854 3.5348333 9.46837187 3 14 C0.89495409 17.55680172 -0.08406808 18.69468936 -4 20 C-5.58033192 20.08705429 -7.16410378 20.11767952 -8.74682617 20.11352539 C-9.70759567 20.11344986 -10.66836517 20.11337433 -11.6582489 20.11329651 C-12.69270645 20.10813522 -13.727164 20.10297394 -14.79296875 20.09765625 C-16.38471672 20.09553383 -16.38471672 20.09553383 -18.00862122 20.09336853 C-21.40160935 20.08776606 -24.79453177 20.07521314 -28.1875 20.0625 C-30.48632717 20.05748532 -32.78515538 20.05292236 -35.08398438 20.04882812 C-40.72267872 20.03779583 -46.36133466 20.0210553 -52 20 C-51.38237495 21.45832772 -50.7574353 22.91355915 -50.12939453 24.36743164 C-49.60854782 25.58348839 -49.60854782 25.58348839 -49.07717896 26.82411194 C-47.76400031 29.47671643 -46.35883411 30.84614621 -43.875 32.4375 C-43.19179688 32.88996094 -42.50859375 33.34242188 -41.8046875 33.80859375 C-41.20914063 34.20175781 -40.61359375 34.59492188 -40 35 C-39.34 35.66 -38.68 36.32 -38 37 C-43.33757045 36.67651088 -46.40836309 33.64497806 -50 30 C-53.29626959 25.82472519 -53.4241753 22.14054415 -54 17 C-53.02947189 17.00999275 -53.02947189 17.00999275 -52.03933716 17.02018738 C-45.32396397 17.0863986 -38.60868301 17.13174129 -31.89306641 17.16479492 C-29.38456458 17.1799103 -26.87608928 17.20040298 -24.36767578 17.22631836 C-20.76848818 17.26258042 -17.169649 17.27969874 -13.5703125 17.29296875 C-12.44319855 17.30845261 -11.31608459 17.32393646 -10.15481567 17.33988953 C-8.59342361 17.34022942 -8.59342361 17.34022942 -7.00048828 17.34057617 C-5.62148849 17.35056892 -5.62148849 17.35056892 -4.21463013 17.36076355 C-3.11838821 17.18218559 -3.11838821 17.18218559 -2 17 C0.49118953 13.2632157 0.2065226 11.25548181 0.125 6.8125 C0.10695313 5.54019531 0.08890625 4.26789063 0.0703125 2.95703125 C0.04710937 1.98121094 0.02390625 1.00539063 0 0 Z " fill="#0C0F15" transform="translate(970,304)"/>
<path d="M0 0 C7.85798505 5.95985691 13.35440552 12.37965644 16 22 C15.34 22.33 14.68 22.66 14 23 C13.5875 22.07058594 13.175 21.14117187 12.75 20.18359375 C7.83047328 9.4954996 2.27349227 2.4249013 -9 -2 C-19.09102429 -5.4206862 -30.18382232 -5.24096997 -40 -1 C-51.43907993 4.68599427 -55.67593967 11.69323271 -61 23 C-61.33 23 -61.66 23 -62 23 C-61.63562983 14.437301 -56.91783118 8.59816917 -50.9375 2.75 C-36.81673181 -9.26104391 -15.38473848 -10.20479629 0 0 Z " fill="#070A0C" transform="translate(822,284)"/>
<path d="M0 0 C0 0.66 0 1.32 0 2 C-2.86555352 0.87114558 -5.68665048 -0.30654039 -8.5 -1.5625 C-18.28798642 -5.58256585 -28.03311254 -4.65569756 -37.91015625 -1.33203125 C-46.94464752 2.5627368 -52.17473458 8.74010794 -56.1875 17.5625 C-58.49156527 23.52222789 -59.04623996 29.63738196 -59 36 C-58.67 36.66 -58.34 37.32 -58 38 C-58.28241883 40.3400417 -58.61250787 42.67504723 -59 45 C-59.66 44.67 -60.32 44.34 -61 44 C-61.50851031 29.57808249 -61.78512602 17.6813041 -52.046875 6.0703125 C-46.01248049 -0.03317813 -39.30086159 -3.92892675 -31 -6 C-30.13375 -6.226875 -29.2675 -6.45375 -28.375 -6.6875 C-18.02093219 -8.04987734 -8.98985389 -4.91897666 0 0 Z " fill="#06090B" transform="translate(959,284)"/>
<path d="M0 0 C5.65110867 4.73116075 7.69412 9.31847409 9.6875 16.25 C8.6875 17.25 8.6875 17.25 5.17749023 17.36352539 C3.61701578 17.36336626 2.05653607 17.35767142 0.49609375 17.34765625 C-0.32374496 17.3462413 -1.14358368 17.34482635 -1.98826599 17.34336853 C-4.61721382 17.33775289 -7.24607773 17.32519779 -9.875 17.3125 C-11.65299357 17.30748701 -13.43098846 17.30292376 -15.20898438 17.29882812 C-19.57685545 17.28777839 -23.94466348 17.27050331 -28.3125 17.25 C-29.3125 15.25 -29.3125 15.25 -28.67578125 13.26171875 C-25.33598618 5.87443969 -22.49805343 1.0489657 -14.75 -2.0859375 C-9.28534777 -3.57470493 -4.92948281 -2.60425507 0 0 Z M-23.625 5.5625 C-25.81242285 8.76902926 -25.81242285 8.76902926 -27.3125 15.25 C-15.7625 15.25 -4.2125 15.25 7.6875 15.25 C5.68104002 7.49987236 5.68104002 7.49987236 1.125 2.75 C0.22587891 2.05390625 0.22587891 2.05390625 -0.69140625 1.34375 C-8.55879679 -3.96436892 -17.47305937 -0.58944063 -23.625 5.5625 Z " fill="#02070E" transform="translate(497.3125,294.75)"/>
<path d="M0 0 C3.12732229 1.71498319 3.91497002 2.72896694 5 6.1875 C5 11.00752368 3.45241055 13.94773364 1 18 C-0.32 18 -1.64 18 -3 18 C-3.66 17.01 -4.32 16.02 -5 15 C-5.66 15 -6.32 15 -7 15 C-7 6 -7 6 -5.46875 4.39453125 C-4.49421875 3.61142578 -4.49421875 3.61142578 -3.5 2.8125 C-2.8503125 2.28269531 -2.200625 1.75289062 -1.53125 1.20703125 C-1.0259375 0.80871094 -0.520625 0.41039062 0 0 Z " fill="#AA1920" transform="translate(174,209)"/>
<path d="M0 0 C0.66 0.33 1.32 0.66 2 1 C1.27554688 1.4125 0.55109375 1.825 -0.1953125 2.25 C-11.05422281 8.73638909 -15.11467234 15.50511138 -20 27 C-23.96 27 -27.92 27 -32 27 C-32.99657145 23.01371422 -33.08781774 22.34979554 -31.6875 18.8125 C-31.42324219 18.11769531 -31.15898437 17.42289063 -30.88671875 16.70703125 C-30 15 -30 15 -28 14 C-28.33 16.31 -28.66 18.62 -29 21 C-28.01 20.67 -27.02 20.34 -26 20 C-25.67 21.32 -25.34 22.64 -25 24 C-23.05655887 23.84385363 -23.05655887 23.84385363 -21 23 C-19.70578314 20.997052 -19.70578314 20.997052 -18.75 18.5 C-14.66438034 9.7790137 -9.0861485 3.44647012 0 0 Z " fill="#74070A" transform="translate(196,203)"/>
<path d="M0 0 C3.09799981 2.19126816 3.80352112 3.41056336 5 7 C5.06970052 9.39490986 5.08448003 11.79167691 5.0625 14.1875 C5.05347656 15.45980469 5.04445313 16.73210937 5.03515625 18.04296875 C5.02355469 19.01878906 5.01195312 19.99460937 5 21 C6.03640625 20.95359375 7.0728125 20.9071875 8.140625 20.859375 C9.51038779 20.82184725 10.88018182 20.78544816 12.25 20.75 C13.27287109 20.69972656 13.27287109 20.69972656 14.31640625 20.6484375 C17.75163549 20.58173402 19.63296514 20.72855943 22.4296875 22.796875 C24.60943673 25.85503064 24.86712564 28.279518 25 32 C24.375 34.375 24.375 34.375 23 36 C20.375 36.75 20.375 36.75 18 37 C18.66 36.484375 19.32 35.96875 20 35.4375 C22.29933304 33.05437052 22.29933304 33.05437052 22.5625 29.4375 C22.38053959 25.92520822 22.38053959 25.92520822 19.921875 24.328125 C16.39720062 22.72600028 13.54608804 22.49280785 9.6875 22.3125 C8.43324219 22.24675781 7.17898438 22.18101562 5.88671875 22.11328125 C4.93410156 22.07589844 3.98148438 22.03851563 3 22 C2.95101562 20.87980469 2.90203125 19.75960938 2.8515625 18.60546875 C2.77652144 17.13278797 2.70097418 15.66013293 2.625 14.1875 C2.5940625 13.44951172 2.563125 12.71152344 2.53125 11.95117188 C2.32653852 8.18106885 2.13566173 6.20349259 0 3 C-6.05018562 1.81723292 -6.05018562 1.81723292 -12 3 C-12 2.34 -12 1.68 -12 1 C-8.30846481 -0.8457676 -4.02978061 -0.48175083 0 0 Z " fill="#080B0F" transform="translate(729,258)"/>
<path d="M0 0 C0.66 0.33 1.32 0.66 2 1 C2.4489803 14.40289332 1.92979974 25.20252973 -7 36 C-13.38763598 42.77257826 -20.58141267 47.78469841 -30 49 C-30.33 48.34 -30.66 47.68 -31 47 C-30.31035156 46.78085937 -29.62070312 46.56171875 -28.91015625 46.3359375 C-17.51482153 42.49059821 -9.31795275 37.44758357 -3.74609375 26.546875 C-1.36672517 21.14148017 -0.56428781 16.88211463 -1 11 C-0.34 11 0.32 11 1 11 C0.67 10.01 0.34 9.02 0 8 C-0.12781786 5.32605036 -0.04391871 2.67904143 0 0 Z " fill="#060A0D" transform="translate(837,308)"/>
<path d="M0 0 C1.92578125 1.46484375 1.92578125 1.46484375 3.92578125 4.46484375 C4.05078125 7.15234375 4.05078125 7.15234375 3.92578125 9.46484375 C1.92578125 7.46484375 1.92578125 7.46484375 1.61328125 4.96484375 C1.27296875 3.72734375 1.27296875 3.72734375 0.92578125 2.46484375 C-1.32543831 1.39345706 -1.32543831 1.39345706 -4.07421875 0.46484375 C-5.03199219 0.05105469 -5.98976563 -0.36273438 -6.9765625 -0.7890625 C-8.47896484 -1.43681641 -8.47896484 -1.43681641 -10.01171875 -2.09765625 C-11.01074219 -2.53207031 -12.00976562 -2.96648437 -13.0390625 -3.4140625 C-19.76318457 -5.89774723 -26.37526769 -5.65698616 -33.44921875 -5.59765625 C-34.98255859 -5.59088867 -34.98255859 -5.59088867 -36.546875 -5.58398438 C-39.05605069 -5.57225925 -41.56510365 -5.55584801 -44.07421875 -5.53515625 C-43.07421875 -7.53515625 -43.07421875 -7.53515625 -41.25366211 -8.14526367 C-26.54464016 -10.7766413 -12.6191877 -7.78630731 0 0 Z " fill="#090D0F" transform="translate(691.07421875,262.53515625)"/>
<path d="M0 0 C5.7099763 1.32790147 7.61085711 3.48114282 11 8 C11.66 8.66 12.32 9.32 13 10 C14.31636914 14.04463342 14.22104149 18.16153612 14.25 22.375 C14.270625 23.1175 14.29125 23.86 14.3125 24.625 C14.36699723 32.33635863 11.39634047 37.47816324 6 43 C2.6875 44.375 2.6875 44.375 0 45 C0 44.34 0 43.68 0 43 C0.721875 42.5875 1.44375 42.175 2.1875 41.75 C6.71500979 38.93288279 9.35119311 35.63746501 11.3125 30.6875 C12.74605771 22.99841772 12.50192579 16.12892036 9 9 C6.666508 6.16588845 6.666508 6.16588845 4 4 C2.66666667 2.66666667 1.33333333 1.33333333 0 0 Z " fill="#06090B" transform="translate(578,295)"/>
<path d="M0 0 C2.46799585 1.78716941 2.92322204 2.69986796 3.6875 5.6875 C3.8421875 6.8321875 3.8421875 6.8321875 4 8 C3.34 8.33 2.68 8.66 2 9 C1.566875 7.865625 1.13375 6.73125 0.6875 5.5625 C0.130625 4.386875 -0.42625 3.21125 -1 2 C-1.99 1.67 -2.98 1.34 -4 1 C-4 1.99 -4 2.98 -4 4 C-8.75 4.125 -8.75 4.125 -11 3 C-12.76732892 3.96399759 -14.53336476 4.93421668 -16.24609375 5.9921875 C-19.77901883 8.02224244 -22.70561544 8.1093457 -26.6875 8.0625 C-27.68136719 8.05347656 -28.67523437 8.04445313 -29.69921875 8.03515625 C-30.83810547 8.01775391 -30.83810547 8.01775391 -32 8 C-28.82061069 5.88040713 -28.05854304 5.81974722 -24.4375 5.75 C-19.05628122 5.33970179 -15.56329251 3.33600271 -11.12890625 0.375 C-6.79848406 -2.42189654 -4.62191738 -1.92579891 0 0 Z " fill="#050709" transform="translate(965,334)"/>
<path d="M0 0 C1 1 1 1 1.11352539 3.13305664 C1.10828857 4.04949951 1.10305176 4.96594238 1.09765625 5.91015625 C1.09443359 6.89951172 1.09121094 7.88886719 1.08789062 8.90820312 C1.07951172 9.94912109 1.07113281 10.99003906 1.0625 12.0625 C1.05798828 13.10728516 1.05347656 14.15207031 1.04882812 15.22851562 C1.03699913 17.8190666 1.02051689 20.40950559 1 23 C-1.64 23 -4.28 23 -7 23 C-7 22.67 -7 22.34 -7 22 C-5.02 22 -3.04 22 -1 22 C-1 15.4 -1 8.8 -1 2 C-8.92 2 -16.84 2 -25 2 C-25 1.67 -25 1.34 -25 1 C-22.33349537 0.83031334 -19.66684474 0.66418179 -17 0.5 C-16.25621094 0.45230469 -15.51242188 0.40460938 -14.74609375 0.35546875 C-9.82102386 0.05568189 -4.93431368 -0.13216912 0 0 Z " fill="#890206" transform="translate(163,376)"/>
<path d="M0 0 C2.75967503 2.75967503 2.61765689 5.59881558 3 9.3125 C3.46923689 13.79197436 3.95630184 17.92022942 6 22 C7.76529595 23.21690533 7.76529595 23.21690533 10 24 C10.86625 24.515625 11.7325 25.03125 12.625 25.5625 C17.04758102 27.44619192 21.23750523 27.7270507 26 28 C26 28.33 26 28.66 26 29 C13.3230157 29.74937838 13.3230157 29.74937838 8.53125 26.47265625 C3.46847003 21.60360511 0.13044044 16.02800088 -0.09765625 8.984375 C-0.08605469 7.91703125 -0.07445312 6.8496875 -0.0625 5.75 C-0.04896484 4.13351562 -0.04896484 4.13351562 -0.03515625 2.484375 C-0.02355469 1.66453125 -0.01195312 0.8446875 0 0 Z " fill="#06090B" transform="translate(551,312)"/>
<path d="M0 0 C-2.15414871 2.15414871 -3.94350449 3.02244392 -6.6875 4.3125 C-14.86049911 8.37551392 -19.4550983 12.06304478 -24.51953125 19.79296875 C-26 22 -26 22 -28 24 C-27.05206294 16.70218319 -21.93450414 11.39497647 -16.38671875 6.8671875 C-6.20271581 -0.34459532 -6.20271581 -0.34459532 0 0 Z " fill="#7A0808" transform="translate(196,192)"/>
<path d="M0 0 C0.495 1.485 0.495 1.485 1 3 C1.99 3.33 2.98 3.66 4 4 C4 4.66 4 5.32 4 6 C-9.2 6 -22.4 6 -36 6 C-36 5.67 -36 5.34 -36 5 C-24.12 4.67 -12.24 4.34 0 4 C-0.495 2.515 -0.495 2.515 -1 1 C-0.67 0.67 -0.34 0.34 0 0 Z " fill="#030609" transform="translate(953,306)"/>
<path d="M0 0 C5.0614803 1.55483382 9.49375316 3.16750198 14 6 C16.19130534 6.69579454 16.19130534 6.69579454 18 7 C18.33 6.01 18.66 5.02 19 4 C19.99 4 20.98 4 22 4 C23.68798827 2.56249809 23.68798827 2.56249809 25 1 C24.43877278 4.25511789 23.66879905 5.99840071 21 8 C18.32357751 9.18077463 16.68194093 9.2397048 13.921875 8.26953125 C11.5858041 7.23260182 9.29443663 6.12572019 7 5 C5.64978259 4.40758285 4.29600319 3.82316159 2.9375 3.25 C1.968125 2.8375 0.99875 2.425 0 2 C0 1.34 0 0.68 0 0 Z " fill="#06090E" transform="translate(669,272)"/>
<path d="M0 0 C0.86625 1.11375 0.86625 1.11375 1.75 2.25 C5.6311346 7.15276155 5.6311346 7.15276155 11 10 C11 10.66 11 11.32 11 12 C12.423125 12.433125 12.423125 12.433125 13.875 12.875 C17 14 17 14 19 16 C12.89509792 15.6869281 8.60611912 12.77579404 4 9 C1.42876107 6.14763895 0 3.95409321 0 0 Z " fill="#080D0F" transform="translate(627,294)"/>
<path d="M0 0 C1.8125 0.0625 1.8125 0.0625 4 1 C5.75 4.5625 5.75 4.5625 7 8 C5.68 8.99 4.36 9.98 3 11 C2.34 10.34 1.68 9.68 1 9 C1.375 5.875 1.375 5.875 2 3 C1.34 3 0.68 3 0 3 C0 2.01 0 1.02 0 0 Z " fill="#151D21" transform="translate(961,335)"/>
<path d="M0 0 C2.39335648 1.77285665 2.93965597 2.76410969 3.6875 5.6875 C3.790625 6.450625 3.89375 7.21375 4 8 C3.01 8.495 3.01 8.495 2 9 C1.566875 7.865625 1.13375 6.73125 0.6875 5.5625 C0.130625 4.386875 -0.42625 3.21125 -1 2 C-1.99 1.67 -2.98 1.34 -4 1 C-4 1.99 -4 2.98 -4 4 C-5.65 4 -7.3 4 -9 4 C-9.33 3.01 -9.66 2.02 -10 1 C-3.43098592 -1.53802817 -3.43098592 -1.53802817 0 0 Z " fill="#0C1214" transform="translate(965,334)"/>
<path d="M0 0 C0.33 0.66 0.66 1.32 1 2 C0.34 2.66 -0.32 3.32 -1 4 C-1 3.34 -1 2.68 -1 2 C-8.92 2 -16.84 2 -25 2 C-25 1.67 -25 1.34 -25 1 C-22.33349537 0.83031334 -19.66684474 0.66418179 -17 0.5 C-16.25621094 0.45230469 -15.51242188 0.40460938 -14.74609375 0.35546875 C-9.82037776 0.05564256 -4.93485224 -0.04486229 0 0 Z " fill="#750000" transform="translate(163,376)"/>
<path d="M0 0 C0.66 0.66 1.32 1.32 2 2 C1.625 5.625 1.625 5.625 1 9 C0.01 9.33 -0.98 9.66 -2 10 C-2 7 -2 4 -2 1 C-1.34 0.67 -0.68 0.34 0 0 Z " fill="#A41419" transform="translate(169,214)"/>
<path d="M0 0 C0.66 0.33 1.32 0.66 2 1 C2 5.95 2 10.9 2 16 C1.01 15.01 0.02 14.02 -1 13 C-1 12.34 -1 11.68 -1 11 C-0.34 11 0.32 11 1 11 C0.67 10.01 0.34 9.02 0 8 C-0.12781786 5.32605036 -0.04391871 2.67904143 0 0 Z " fill="#0A1013" transform="translate(837,308)"/>
<path d="M0 0 C0 0.99 0 1.98 0 3 C-2.97 4.65 -5.94 6.3 -9 8 C-7.52878465 3.34115139 -7.52878465 3.34115139 -5.0625 1.75 C-3.3845189 1.13982506 -1.69385378 0.56461793 0 0 Z " fill="#0F1519" transform="translate(587,348)"/>
<path d="M0 0 C8.57142857 1 8.57142857 1 12 2 C12 2.66 12 3.32 12 4 C7.71 3.34 3.42 2.68 -1 2 C-0.67 1.34 -0.34 0.68 0 0 Z " fill="#030507" transform="translate(666,254)"/>
<path d="M0 0 C0.66 0 1.32 0 2 0 C2 1.32 2 2.64 2 4 C4.31 4 6.62 4 9 4 C9 4.66 9 5.32 9 6 C5.7 6 2.4 6 -1 6 C-1.33 5.34 -1.66 4.68 -2 4 C-1.0625 1.875 -1.0625 1.875 0 0 Z " fill="#9B1318" transform="translate(244,222)"/>
<path d="M0 0 C0.33 0.99 0.66 1.98 1 3 C-1.11693724 5.43055758 -2.53521326 6.84507109 -5.625 7.875 C-6.40875 7.91625 -7.1925 7.9575 -8 8 C-8.66 7.34 -9.32 6.68 -10 6 C-8.68 6 -7.36 6 -6 6 C-5.67 5.01 -5.34 4.02 -5 3 C-4.01 3 -3.02 3 -2 3 C-1.34 2.01 -0.68 1.02 0 0 Z " fill="#0F1215" transform="translate(693,273)"/>
<path d="M0 0 C0.66 0 1.32 0 2 0 C2.83819158 1.62249941 3.6704116 3.24808497 4.5 4.875 C4.9640625 5.77992188 5.428125 6.68484375 5.90625 7.6171875 C7 10 7 10 7 12 C6.34 12 5.68 12 5 12 C4.3490741 10.75264433 3.70448331 9.50198168 3.0625 8.25 C2.70285156 7.55390625 2.34320312 6.8578125 1.97265625 6.140625 C1.04441818 4.09775567 0.46833422 2.18884624 0 0 Z " fill="#050709" transform="translate(759,329)"/>
<path d="M0 0 C0.66 0.33 1.32 0.66 2 1 C-0.51830747 4.12270126 -1.7261549 4.94523098 -5.75 5.75 C-7.35875 5.87375 -7.35875 5.87375 -9 6 C-9 5.34 -9 4.68 -9 4 C-7.88625 3.71125 -6.7725 3.4225 -5.625 3.125 C-1.99708908 2.30758671 -1.99708908 2.30758671 0 0 Z " fill="#080E12" transform="translate(867,351)"/>
<path d="M0 0 C4.43090471 1.20842856 6.98112756 2.51668565 10 6 C6.42188369 6 5.73324619 5.13534858 3 3 C2.01 2.67 1.02 2.34 0 2 C0 1.34 0 0.68 0 0 Z " fill="#080A0C" transform="translate(668,316)"/>
<path d="M0 0 C0.99 0 1.98 0 3 0 C3 0.66 3 1.32 3 2 C3.99 2.33 4.98 2.66 6 3 C5.67 3.66 5.34 4.32 5 5 C2.83125748 4.49396008 1.00032373 4.00016187 -1 3 C-0.67 2.01 -0.34 1.02 0 0 Z " fill="#161D22" transform="translate(665,312)"/>
<path d="M0 0 C0.66 0.66 1.32 1.32 2 2 C1.34 2 0.68 2 0 2 C0 3.32 0 4.64 0 6 C-1.32 6 -2.64 6 -4 6 C-3.6875 4.125 -3.6875 4.125 -3 2 C-2.01 1.34 -1.02 0.68 0 0 Z " fill="#262B30" transform="translate(625,332)"/>
</svg>
